<mxfile host="Electron" agent="Mozilla/5.0 (X11; Linux x86_64) AppleWebKit/537.36 (KHTML, like Gecko) draw.io/26.0.16 Chrome/132.0.6834.196 Electron/34.2.0 Safari/537.36" version="26.0.16">
  <diagram name="Page-1" id="e56a1550-8fbb-45ad-956c-1786394a9013">
    <mxGraphModel dx="1195" dy="726" grid="1" gridSize="10" guides="1" tooltips="1" connect="1" arrows="1" fold="1" page="1" pageScale="1" pageWidth="1100" pageHeight="850" background="none" math="0" shadow="0">
      <root>
        <mxCell id="0" />
        <mxCell id="1" parent="0" />
        <UserObject label="" mermaidData="{&#xa;  &quot;data&quot;: &quot;erDiagram\n    users {\n        id int(11) PK\n        username varchar(50)\n        email varchar(100)\n        password_hash varchar(255)\n        isAdmin tinyint(4)\n        isLocked tinyint(4)\n        last_login timestamp\n    }\n    beute_batzen {\n        user_id int(11) PK\n        amount bigint(50)\n    }\n    targets {\n        id int(10) PK\n        name varchar(100)\n        typ string  \&quot;enum: Produktion, Klick, Sonstiges\&quot;\n    }\n    upgrades {\n        id int(11) PK\n        name varchar(100)\n        basispreis int(11)\n        effektart string  \&quot;enum: prozent, absolut\&quot;\n        effektwert double\n        kategorie string  \&quot;enum: Produktion, Boost, Klick\&quot;\n        ziel_id int(11) FK\n    }\n    user_upgrades {\n        user_id int(11) PK\n        upgrade_id int(11) PK\n        level int(11)\n    }\n\n    users ||--o| beute_batzen : \&quot;hat\&quot;\n    users ||--o{ user_upgrades : \&quot;legt an\&quot;\n    upgrades ||--o{ user_upgrades : \&quot;gehÃ¶rt zu\&quot;\n    targets ||--o{ upgrades : \&quot;definiert\&quot;&quot;&#xa;}" id="aNzufu6EPi2o1peYKyBf-85">
          <mxCell style="shape=image;noLabel=1;verticalAlign=top;imageAspect=1;image=data:image/svg+xml,PHN2ZyBhcmlhLXJvbGVkZXNjcmlwdGlvbj0iZXIiIHJvbGU9ImdyYXBoaWNzLWRvY3VtZW50IGRvY3VtZW50IiB2aWV3Qm94PSIwIDAgNjMzLjc0NjMzNzg5MDYyNSA1ODUiIHN0eWxlPSJtYXgtd2lkdGg6IDYzMy43NDYzMzc4OTA2MjVweDsiIHhtbG5zPSJodHRwOi8vd3d3LnczLm9yZy8yMDAwL3N2ZyIgd2lkdGg9IjEwMCUiIGlkPSJnZU1lcm1haWRPdXRwdXQtMTc0NTkzMDcwOTA2OCI+PHN0eWxlPiNnZU1lcm1haWRPdXRwdXQtMTc0NTkzMDcwOTA2OHtmb250LWZhbWlseToidHJlYnVjaGV0IG1zIix2ZXJkYW5hLGFyaWFsLHNhbnMtc2VyaWY7Zm9udC1zaXplOjE2cHg7ZmlsbDojMDAwMDAwO30jZ2VNZXJtYWlkT3V0cHV0LTE3NDU5MzA3MDkwNjggLmVycm9yLWljb257ZmlsbDojNTUyMjIyO30jZ2VNZXJtYWlkT3V0cHV0LTE3NDU5MzA3MDkwNjggLmVycm9yLXRleHR7ZmlsbDojNTUyMjIyO3N0cm9rZTojNTUyMjIyO30jZ2VNZXJtYWlkT3V0cHV0LTE3NDU5MzA3MDkwNjggLmVkZ2UtdGhpY2tuZXNzLW5vcm1hbHtzdHJva2Utd2lkdGg6MXB4O30jZ2VNZXJtYWlkT3V0cHV0LTE3NDU5MzA3MDkwNjggLmVkZ2UtdGhpY2tuZXNzLXRoaWNre3N0cm9rZS13aWR0aDozLjVweDt9I2dlTWVybWFpZE91dHB1dC0xNzQ1OTMwNzA5MDY4IC5lZGdlLXBhdHRlcm4tc29saWR7c3Ryb2tlLWRhc2hhcnJheTowO30jZ2VNZXJtYWlkT3V0cHV0LTE3NDU5MzA3MDkwNjggLmVkZ2UtdGhpY2tuZXNzLWludmlzaWJsZXtzdHJva2Utd2lkdGg6MDtmaWxsOm5vbmU7fSNnZU1lcm1haWRPdXRwdXQtMTc0NTkzMDcwOTA2OCAuZWRnZS1wYXR0ZXJuLWRhc2hlZHtzdHJva2UtZGFzaGFycmF5OjM7fSNnZU1lcm1haWRPdXRwdXQtMTc0NTkzMDcwOTA2OCAuZWRnZS1wYXR0ZXJuLWRvdHRlZHtzdHJva2UtZGFzaGFycmF5OjI7fSNnZU1lcm1haWRPdXRwdXQtMTc0NTkzMDcwOTA2OCAubWFya2Vye2ZpbGw6IzY2NjtzdHJva2U6IzY2Njt9I2dlTWVybWFpZE91dHB1dC0xNzQ1OTMwNzA5MDY4IC5tYXJrZXIuY3Jvc3N7c3Ryb2tlOiM2NjY7fSNnZU1lcm1haWRPdXRwdXQtMTc0NTkzMDcwOTA2OCBzdmd7Zm9udC1mYW1pbHk6InRyZWJ1Y2hldCBtcyIsdmVyZGFuYSxhcmlhbCxzYW5zLXNlcmlmO2ZvbnQtc2l6ZToxNnB4O30jZ2VNZXJtYWlkT3V0cHV0LTE3NDU5MzA3MDkwNjggcHttYXJnaW46MDt9I2dlTWVybWFpZE91dHB1dC0xNzQ1OTMwNzA5MDY4IC5lbnRpdHlCb3h7ZmlsbDojZWVlO3N0cm9rZTojOTk5O30jZ2VNZXJtYWlkT3V0cHV0LTE3NDU5MzA3MDkwNjggLmF0dHJpYnV0ZUJveE9kZHtmaWxsOiNmZmZmZmY7c3Ryb2tlOiM5OTk7fSNnZU1lcm1haWRPdXRwdXQtMTc0NTkzMDcwOTA2OCAuYXR0cmlidXRlQm94RXZlbntmaWxsOiNmMmYyZjI7c3Ryb2tlOiM5OTk7fSNnZU1lcm1haWRPdXRwdXQtMTc0NTkzMDcwOTA2OCAucmVsYXRpb25zaGlwTGFiZWxCb3h7ZmlsbDpoc2woLTE2MCwgMCUsIDkzLjMzMzMzMzMzMzMlKTtvcGFjaXR5OjAuNztiYWNrZ3JvdW5kLWNvbG9yOmhzbCgtMTYwLCAwJSwgOTMuMzMzMzMzMzMzMyUpO30jZ2VNZXJtYWlkT3V0cHV0LTE3NDU5MzA3MDkwNjggLnJlbGF0aW9uc2hpcExhYmVsQm94IHJlY3R7b3BhY2l0eTowLjU7fSNnZU1lcm1haWRPdXRwdXQtMTc0NTkzMDcwOTA2OCAucmVsYXRpb25zaGlwTGluZXtzdHJva2U6IzY2Njt9I2dlTWVybWFpZE91dHB1dC0xNzQ1OTMwNzA5MDY4IC5lbnRpdHlUaXRsZVRleHR7dGV4dC1hbmNob3I6bWlkZGxlO2ZvbnQtc2l6ZToxOHB4O2ZpbGw6IzAwMDAwMDt9I2dlTWVybWFpZE91dHB1dC0xNzQ1OTMwNzA5MDY4ICNNRF9QQVJFTlRfU1RBUlR7ZmlsbDojZjVmNWY1IWltcG9ydGFudDtzdHJva2U6IzY2NiFpbXBvcnRhbnQ7c3Ryb2tlLXdpZHRoOjE7fSNnZU1lcm1haWRPdXRwdXQtMTc0NTkzMDcwOTA2OCAjTURfUEFSRU5UX0VORHtmaWxsOiNmNWY1ZjUhaW1wb3J0YW50O3N0cm9rZTojNjY2IWltcG9ydGFudDtzdHJva2Utd2lkdGg6MTt9I2dlTWVybWFpZE91dHB1dC0xNzQ1OTMwNzA5MDY4IDpyb290ey0tbWVybWFpZC1mb250LWZhbWlseToidHJlYnVjaGV0IG1zIix2ZXJkYW5hLGFyaWFsLHNhbnMtc2VyaWY7fTwvc3R5bGU+PGc+PC9nPjxkZWZzPjxtYXJrZXIgb3JpZW50PSJhdXRvIiBtYXJrZXJIZWlnaHQ9IjI0MCIgbWFya2VyV2lkdGg9IjE5MCIgcmVmWT0iNyIgcmVmWD0iMCIgaWQ9Ik1EX1BBUkVOVF9TVEFSVCI+PHBhdGggZD0iTSAxOCw3IEw5LDEzIEwxLDcgTDksMSBaIj48L3BhdGg+PC9tYXJrZXI+PC9kZWZzPjxkZWZzPjxtYXJrZXIgb3JpZW50PSJhdXRvIiBtYXJrZXJIZWlnaHQ9IjI4IiBtYXJrZXJXaWR0aD0iMjAiIHJlZlk9IjciIHJlZlg9IjE5IiBpZD0iTURfUEFSRU5UX0VORCI+PHBhdGggZD0iTSAxOCw3IEw5LDEzIEwxLDcgTDksMSBaIj48L3BhdGg+PC9tYXJrZXI+PC9kZWZzPjxkZWZzPjxtYXJrZXIgb3JpZW50PSJhdXRvIiBtYXJrZXJIZWlnaHQ9IjE4IiBtYXJrZXJXaWR0aD0iMTgiIHJlZlk9IjkiIHJlZlg9IjAiIGlkPSJPTkxZX09ORV9TVEFSVCI+PHBhdGggZD0iTTksMCBMOSwxOCBNMTUsMCBMMTUsMTgiIGZpbGw9Im5vbmUiIHN0cm9rZT0iZ3JheSI+PC9wYXRoPjwvbWFya2VyPjwvZGVmcz48ZGVmcz48bWFya2VyIG9yaWVudD0iYXV0byIgbWFya2VySGVpZ2h0PSIxOCIgbWFya2VyV2lkdGg9IjE4IiByZWZZPSI5IiByZWZYPSIxOCIgaWQ9Ik9OTFlfT05FX0VORCI+PHBhdGggZD0iTTMsMCBMMywxOCBNOSwwIEw5LDE4IiBmaWxsPSJub25lIiBzdHJva2U9ImdyYXkiPjwvcGF0aD48L21hcmtlcj48L2RlZnM+PGRlZnM+PG1hcmtlciBvcmllbnQ9ImF1dG8iIG1hcmtlckhlaWdodD0iMTgiIG1hcmtlcldpZHRoPSIzMCIgcmVmWT0iOSIgcmVmWD0iMCIgaWQ9IlpFUk9fT1JfT05FX1NUQVJUIj48Y2lyY2xlIHI9IjYiIGN5PSI5IiBjeD0iMjEiIGZpbGw9IndoaXRlIiBzdHJva2U9ImdyYXkiPjwvY2lyY2xlPjxwYXRoIGQ9Ik05LDAgTDksMTgiIGZpbGw9Im5vbmUiIHN0cm9rZT0iZ3JheSI+PC9wYXRoPjwvbWFya2VyPjwvZGVmcz48ZGVmcz48bWFya2VyIG9yaWVudD0iYXV0byIgbWFya2VySGVpZ2h0PSIxOCIgbWFya2VyV2lkdGg9IjMwIiByZWZZPSI5IiByZWZYPSIzMCIgaWQ9IlpFUk9fT1JfT05FX0VORCI+PGNpcmNsZSByPSI2IiBjeT0iOSIgY3g9IjkiIGZpbGw9IndoaXRlIiBzdHJva2U9ImdyYXkiPjwvY2lyY2xlPjxwYXRoIGQ9Ik0yMSwwIEwyMSwxOCIgZmlsbD0ibm9uZSIgc3Ryb2tlPSJncmF5Ij48L3BhdGg+PC9tYXJrZXI+PC9kZWZzPjxkZWZzPjxtYXJrZXIgb3JpZW50PSJhdXRvIiBtYXJrZXJIZWlnaHQ9IjM2IiBtYXJrZXJXaWR0aD0iNDUiIHJlZlk9IjE4IiByZWZYPSIxOCIgaWQ9Ik9ORV9PUl9NT1JFX1NUQVJUIj48cGF0aCBkPSJNMCwxOCBRIDE4LDAgMzYsMTggUSAxOCwzNiAwLDE4IE00Miw5IEw0MiwyNyIgZmlsbD0ibm9uZSIgc3Ryb2tlPSJncmF5Ij48L3BhdGg+PC9tYXJrZXI+PC9kZWZzPjxkZWZzPjxtYXJrZXIgb3JpZW50PSJhdXRvIiBtYXJrZXJIZWlnaHQ9IjM2IiBtYXJrZXJXaWR0aD0iNDUiIHJlZlk9IjE4IiByZWZYPSIyNyIgaWQ9Ik9ORV9PUl9NT1JFX0VORCI+PHBhdGggZD0iTTMsOSBMMywyNyBNOSwxOCBRMjcsMCA0NSwxOCBRMjcsMzYgOSwxOCIgZmlsbD0ibm9uZSIgc3Ryb2tlPSJncmF5Ij48L3BhdGg+PC9tYXJrZXI+PC9kZWZzPjxkZWZzPjxtYXJrZXIgb3JpZW50PSJhdXRvIiBtYXJrZXJIZWlnaHQ9IjM2IiBtYXJrZXJXaWR0aD0iNTciIHJlZlk9IjE4IiByZWZYPSIxOCIgaWQ9IlpFUk9fT1JfTU9SRV9TVEFSVCI+PGNpcmNsZSByPSI2IiBjeT0iMTgiIGN4PSI0OCIgZmlsbD0id2hpdGUiIHN0cm9rZT0iZ3JheSI+PC9jaXJjbGU+PHBhdGggZD0iTTAsMTggUTE4LDAgMzYsMTggUTE4LDM2IDAsMTgiIGZpbGw9Im5vbmUiIHN0cm9rZT0iZ3JheSI+PC9wYXRoPjwvbWFya2VyPjwvZGVmcz48ZGVmcz48bWFya2VyIG9yaWVudD0iYXV0byIgbWFya2VySGVpZ2h0PSIzNiIgbWFya2VyV2lkdGg9IjU3IiByZWZZPSIxOCIgcmVmWD0iMzkiIGlkPSJaRVJPX09SX01PUkVfRU5EIj48Y2lyY2xlIHI9IjYiIGN5PSIxOCIgY3g9IjkiIGZpbGw9IndoaXRlIiBzdHJva2U9ImdyYXkiPjwvY2lyY2xlPjxwYXRoIGQ9Ik0yMSwxOCBRMzksMCA1NywxOCBRMzksMzYgMjEsMTgiIGZpbGw9Im5vbmUiIHN0cm9rZT0iZ3JheSI+PC9wYXRoPjwvbWFya2VyPjwvZGVmcz48cGF0aCBzdHlsZT0ic3Ryb2tlOiBncmF5OyBmaWxsOiBub25lOyIgbWFya2VyLXN0YXJ0PSJ1cmwoI09OTFlfT05FX1NUQVJUKSIgbWFya2VyLWVuZD0idXJsKCNaRVJPX09SX09ORV9FTkQpIiBkPSJNOTguNjY1LDM3OEw5NS41OSwzODYuMzMzQzkyLjUxNSwzOTQuNjY3LDg2LjM2NCw0MTEuMzMzLDgzLjI4OSw0MjkuNzVDODAuMjE0LDQ0OC4xNjcsODAuMjE0LDQ2OC4zMzMsODAuMjE0LDQ3OC40MTdMODAuMjE0LDQ4OC41IiBjbGFzcz0iZXIgcmVsYXRpb25zaGlwTGluZSI+PC9wYXRoPjxwYXRoIHN0eWxlPSJzdHJva2U6IGdyYXk7IGZpbGw6IG5vbmU7IiBtYXJrZXItc3RhcnQ9InVybCgjT05MWV9PTkVfU1RBUlQpIiBtYXJrZXItZW5kPSJ1cmwoI1pFUk9fT1JfTU9SRV9FTkQpIiBkPSJNMjA0LjM1NSwzNzhMMjExLjU4MSwzODYuMzMzQzIxOC44MDgsMzk0LjY2NywyMzMuMjYsNDExLjMzMywyNTguMTMzLDQyOS41MTdDMjgzLjAwNiw0NDcuNzAxLDMxOC4yOTksNDY3LjQwMiwzMzUuOTQ2LDQ3Ny4yNTNMMzUzLjU5Miw0ODcuMTA0IiBjbGFzcz0iZXIgcmVsYXRpb25zaGlwTGluZSI+PC9wYXRoPjxwYXRoIHN0eWxlPSJzdHJva2U6IGdyYXk7IGZpbGw6IG5vbmU7IiBtYXJrZXItc3RhcnQ9InVybCgjT05MWV9PTkVfU1RBUlQpIiBtYXJrZXItZW5kPSJ1cmwoI1pFUk9fT1JfTU9SRV9FTkQpIiBkPSJNNDY1LjIxLDM3OEw0NjUuMjEsMzg2LjMzM0M0NjUuMjEsMzk0LjY2Nyw0NjUuMjEsNDExLjMzMyw0NjAuNzU0LDQyOEM0NTYuMjk4LDQ0NC42NjcsNDQ3LjM4NSw0NjEuMzMzLDQ0Mi45MjksNDY5LjY2N0w0MzguNDcyLDQ3OCIgY2xhc3M9ImVyIHJlbGF0aW9uc2hpcExpbmUiPjwvcGF0aD48cGF0aCBzdHlsZT0ic3Ryb2tlOiBncmF5OyBmaWxsOiBub25lOyIgbWFya2VyLXN0YXJ0PSJ1cmwoI09OTFlfT05FX1NUQVJUKSIgbWFya2VyLWVuZD0idXJsKCNaRVJPX09SX01PUkVfRU5EKSIgZD0iTTQ2NS4yMSwxMDdMNDY1LjIxLDExNS4zMzNDNDY1LjIxLDEyMy42NjcsNDY1LjIxLDE0MC4zMzMsNDY1LjIxLDE1N0M0NjUuMjEsMTczLjY2Nyw0NjUuMjEsMTkwLjMzMyw0NjUuMjEsMTk4LjY2N0w0NjUuMjEsMjA3IiBjbGFzcz0iZXIgcmVsYXRpb25zaGlwTGluZSI+PC9wYXRoPjxnIHRyYW5zZm9ybT0idHJhbnNsYXRlKDQzLjc1NDQyNTA0ODgyODEyNSwyMDcgKSIgaWQ9ImVudGl0eS11c2Vycy0zM2FlMWUyNi1iZTMxLTVjMWQtYmY2NS1lODU5ZTlkMDMwOGUiPjxyZWN0IGhlaWdodD0iMTcxIiB3aWR0aD0iMTcyLjkxOTk4MjkxMDE1NjI1IiB5PSIwIiB4PSIwIiBjbGFzcz0iZXIgZW50aXR5Qm94Ij48L3JlY3Q+PHRleHQgc3R5bGU9ImRvbWluYW50LWJhc2VsaW5lOiBtaWRkbGU7IHRleHQtYW5jaG9yOiBtaWRkbGU7IGZvbnQtc2l6ZTogMTJweDsiIHRyYW5zZm9ybT0idHJhbnNsYXRlKDg2LjQ1OTk5MTQ1NTA3ODEyLDEyKSIgeT0iMCIgeD0iMCIgaWQ9InRleHQtZW50aXR5LXVzZXJzLTMzYWUxZTI2LWJlMzEtNWMxZC1iZjY1LWU4NTllOWQwMzA4ZSIgY2xhc3M9ImVyIGVudGl0eUxhYmVsIj51c2VyczwvdGV4dD48cmVjdCBoZWlnaHQ9IjIxIiB3aWR0aD0iODEuMzU5Mzc1IiB5PSIyNCIgeD0iMCIgY2xhc3M9ImVyIGF0dHJpYnV0ZUJveE9kZCI+PC9yZWN0Pjx0ZXh0IHN0eWxlPSJkb21pbmFudC1iYXNlbGluZTogbWlkZGxlOyBmb250LXNpemU6IDEwLjJweDsiIHRyYW5zZm9ybT0idHJhbnNsYXRlKDUsMzQuNSkiIHk9IjAiIHg9IjAiIGlkPSJ0ZXh0LWVudGl0eS11c2Vycy0zM2FlMWUyNi1iZTMxLTVjMWQtYmY2NS1lODU5ZTlkMDMwOGUtYXR0ci0xLXR5cGUiIGNsYXNzPSJlciBlbnRpdHlMYWJlbCI+aWQ8L3RleHQ+PHJlY3QgaGVpZ2h0PSIyMSIgd2lkdGg9IjY3Ljc2NTYyNSIgeT0iMjQiIHg9IjgxLjM1OTM3NSIgY2xhc3M9ImVyIGF0dHJpYnV0ZUJveE9kZCI+PC9yZWN0Pjx0ZXh0IHN0eWxlPSJkb21pbmFudC1iYXNlbGluZTogbWlkZGxlOyBmb250LXNpemU6IDEwLjJweDsiIHRyYW5zZm9ybT0idHJhbnNsYXRlKDg2LjM1OTM3NSwzNC41KSIgeT0iMCIgeD0iMCIgaWQ9InRleHQtZW50aXR5LXVzZXJzLTMzYWUxZTI2LWJlMzEtNWMxZC1iZjY1LWU4NTllOWQwMzA4ZS1hdHRyLTEtbmFtZSIgY2xhc3M9ImVyIGVudGl0eUxhYmVsIj5pbnQoMTEpPC90ZXh0PjxyZWN0IGhlaWdodD0iMjEiIHdpZHRoPSIyMy43OTQ5ODI5MTAxNTYyNSIgeT0iMjQiIHg9IjE0OS4xMjUiIGNsYXNzPSJlciBhdHRyaWJ1dGVCb3hPZGQiPjwvcmVjdD48dGV4dCBzdHlsZT0iZG9taW5hbnQtYmFzZWxpbmU6IG1pZGRsZTsgZm9udC1zaXplOiAxMC4ycHg7IiB0cmFuc2Zvcm09InRyYW5zbGF0ZSgxNTQuMTI1LDM0LjUpIiB5PSIwIiB4PSIwIiBpZD0idGV4dC1lbnRpdHktdXNlcnMtMzNhZTFlMjYtYmUzMS01YzFkLWJmNjUtZTg1OWU5ZDAzMDhlLWF0dHItMS1rZXkiIGNsYXNzPSJlciBlbnRpdHlMYWJlbCI+UEs8L3RleHQ+PHJlY3QgaGVpZ2h0PSIyMSIgd2lkdGg9IjgxLjM1OTM3NSIgeT0iNDUiIHg9IjAiIGNsYXNzPSJlciBhdHRyaWJ1dGVCb3hFdmVuIj48L3JlY3Q+PHRleHQgc3R5bGU9ImRvbWluYW50LWJhc2VsaW5lOiBtaWRkbGU7IGZvbnQtc2l6ZTogMTAuMnB4OyIgdHJhbnNmb3JtPSJ0cmFuc2xhdGUoNSw1NS41KSIgeT0iMCIgeD0iMCIgaWQ9InRleHQtZW50aXR5LXVzZXJzLTMzYWUxZTI2LWJlMzEtNWMxZC1iZjY1LWU4NTllOWQwMzA4ZS1hdHRyLTItdHlwZSIgY2xhc3M9ImVyIGVudGl0eUxhYmVsIj51c2VybmFtZTwvdGV4dD48cmVjdCBoZWlnaHQ9IjIxIiB3aWR0aD0iNjcuNzY1NjI1IiB5PSI0NSIgeD0iODEuMzU5Mzc1IiBjbGFzcz0iZXIgYXR0cmlidXRlQm94RXZlbiI+PC9yZWN0Pjx0ZXh0IHN0eWxlPSJkb21pbmFudC1iYXNlbGluZTogbWlkZGxlOyBmb250LXNpemU6IDEwLjJweDsiIHRyYW5zZm9ybT0idHJhbnNsYXRlKDg2LjM1OTM3NSw1NS41KSIgeT0iMCIgeD0iMCIgaWQ9InRleHQtZW50aXR5LXVzZXJzLTMzYWUxZTI2LWJlMzEtNWMxZC1iZjY1LWU4NTllOWQwMzA4ZS1hdHRyLTItbmFtZSIgY2xhc3M9ImVyIGVudGl0eUxhYmVsIj52YXJjaGFyKDUwKTwvdGV4dD48cmVjdCBoZWlnaHQ9IjIxIiB3aWR0aD0iMjMuNzk0OTgyOTEwMTU2MjUiIHk9IjQ1IiB4PSIxNDkuMTI1IiBjbGFzcz0iZXIgYXR0cmlidXRlQm94RXZlbiI+PC9yZWN0Pjx0ZXh0IHN0eWxlPSJkb21pbmFudC1iYXNlbGluZTogbWlkZGxlOyBmb250LXNpemU6IDEwLjJweDsiIHRyYW5zZm9ybT0idHJhbnNsYXRlKDE1NC4xMjUsNTUuNSkiIHk9IjAiIHg9IjAiIGlkPSJ0ZXh0LWVudGl0eS11c2Vycy0zM2FlMWUyNi1iZTMxLTVjMWQtYmY2NS1lODU5ZTlkMDMwOGUtYXR0ci0yLWtleSIgY2xhc3M9ImVyIGVudGl0eUxhYmVsIj48L3RleHQ+PHJlY3QgaGVpZ2h0PSIyMSIgd2lkdGg9IjgxLjM1OTM3NSIgeT0iNjYiIHg9IjAiIGNsYXNzPSJlciBhdHRyaWJ1dGVCb3hPZGQiPjwvcmVjdD48dGV4dCBzdHlsZT0iZG9taW5hbnQtYmFzZWxpbmU6IG1pZGRsZTsgZm9udC1zaXplOiAxMC4ycHg7IiB0cmFuc2Zvcm09InRyYW5zbGF0ZSg1LDc2LjUpIiB5PSIwIiB4PSIwIiBpZD0idGV4dC1lbnRpdHktdXNlcnMtMzNhZTFlMjYtYmUzMS01YzFkLWJmNjUtZTg1OWU5ZDAzMDhlLWF0dHItMy10eXBlIiBjbGFzcz0iZXIgZW50aXR5TGFiZWwiPmVtYWlsPC90ZXh0PjxyZWN0IGhlaWdodD0iMjEiIHdpZHRoPSI2Ny43NjU2MjUiIHk9IjY2IiB4PSI4MS4zNTkzNzUiIGNsYXNzPSJlciBhdHRyaWJ1dGVCb3hPZGQiPjwvcmVjdD48dGV4dCBzdHlsZT0iZG9taW5hbnQtYmFzZWxpbmU6IG1pZGRsZTsgZm9udC1zaXplOiAxMC4ycHg7IiB0cmFuc2Zvcm09InRyYW5zbGF0ZSg4Ni4zNTkzNzUsNzYuNSkiIHk9IjAiIHg9IjAiIGlkPSJ0ZXh0LWVudGl0eS11c2Vycy0zM2FlMWUyNi1iZTMxLTVjMWQtYmY2NS1lODU5ZTlkMDMwOGUtYXR0ci0zLW5hbWUiIGNsYXNzPSJlciBlbnRpdHlMYWJlbCI+dmFyY2hhcigxMDApPC90ZXh0PjxyZWN0IGhlaWdodD0iMjEiIHdpZHRoPSIyMy43OTQ5ODI5MTAxNTYyNSIgeT0iNjYiIHg9IjE0OS4xMjUiIGNsYXNzPSJlciBhdHRyaWJ1dGVCb3hPZGQiPjwvcmVjdD48dGV4dCBzdHlsZT0iZG9taW5hbnQtYmFzZWxpbmU6IG1pZGRsZTsgZm9udC1zaXplOiAxMC4ycHg7IiB0cmFuc2Zvcm09InRyYW5zbGF0ZSgxNTQuMTI1LDc2LjUpIiB5PSIwIiB4PSIwIiBpZD0idGV4dC1lbnRpdHktdXNlcnMtMzNhZTFlMjYtYmUzMS01YzFkLWJmNjUtZTg1OWU5ZDAzMDhlLWF0dHItMy1rZXkiIGNsYXNzPSJlciBlbnRpdHlMYWJlbCI+PC90ZXh0PjxyZWN0IGhlaWdodD0iMjEiIHdpZHRoPSI4MS4zNTkzNzUiIHk9Ijg3IiB4PSIwIiBjbGFzcz0iZXIgYXR0cmlidXRlQm94RXZlbiI+PC9yZWN0Pjx0ZXh0IHN0eWxlPSJkb21pbmFudC1iYXNlbGluZTogbWlkZGxlOyBmb250LXNpemU6IDEwLjJweDsiIHRyYW5zZm9ybT0idHJhbnNsYXRlKDUsOTcuNSkiIHk9IjAiIHg9IjAiIGlkPSJ0ZXh0LWVudGl0eS11c2Vycy0zM2FlMWUyNi1iZTMxLTVjMWQtYmY2NS1lODU5ZTlkMDMwOGUtYXR0ci00LXR5cGUiIGNsYXNzPSJlciBlbnRpdHlMYWJlbCI+cGFzc3dvcmRfaGFzaDwvdGV4dD48cmVjdCBoZWlnaHQ9IjIxIiB3aWR0aD0iNjcuNzY1NjI1IiB5PSI4NyIgeD0iODEuMzU5Mzc1IiBjbGFzcz0iZXIgYXR0cmlidXRlQm94RXZlbiI+PC9yZWN0Pjx0ZXh0IHN0eWxlPSJkb21pbmFudC1iYXNlbGluZTogbWlkZGxlOyBmb250LXNpemU6IDEwLjJweDsiIHRyYW5zZm9ybT0idHJhbnNsYXRlKDg2LjM1OTM3NSw5Ny41KSIgeT0iMCIgeD0iMCIgaWQ9InRleHQtZW50aXR5LXVzZXJzLTMzYWUxZTI2LWJlMzEtNWMxZC1iZjY1LWU4NTllOWQwMzA4ZS1hdHRyLTQtbmFtZSIgY2xhc3M9ImVyIGVudGl0eUxhYmVsIj52YXJjaGFyKDI1NSk8L3RleHQ+PHJlY3QgaGVpZ2h0PSIyMSIgd2lkdGg9IjIzLjc5NDk4MjkxMDE1NjI1IiB5PSI4NyIgeD0iMTQ5LjEyNSIgY2xhc3M9ImVyIGF0dHJpYnV0ZUJveEV2ZW4iPjwvcmVjdD48dGV4dCBzdHlsZT0iZG9taW5hbnQtYmFzZWxpbmU6IG1pZGRsZTsgZm9udC1zaXplOiAxMC4ycHg7IiB0cmFuc2Zvcm09InRyYW5zbGF0ZSgxNTQuMTI1LDk3LjUpIiB5PSIwIiB4PSIwIiBpZD0idGV4dC1lbnRpdHktdXNlcnMtMzNhZTFlMjYtYmUzMS01YzFkLWJmNjUtZTg1OWU5ZDAzMDhlLWF0dHItNC1rZXkiIGNsYXNzPSJlciBlbnRpdHlMYWJlbCI+PC90ZXh0PjxyZWN0IGhlaWdodD0iMjEiIHdpZHRoPSI4MS4zNTkzNzUiIHk9IjEwOCIgeD0iMCIgY2xhc3M9ImVyIGF0dHJpYnV0ZUJveE9kZCI+PC9yZWN0Pjx0ZXh0IHN0eWxlPSJkb21pbmFudC1iYXNlbGluZTogbWlkZGxlOyBmb250LXNpemU6IDEwLjJweDsiIHRyYW5zZm9ybT0idHJhbnNsYXRlKDUsMTE4LjUpIiB5PSIwIiB4PSIwIiBpZD0idGV4dC1lbnRpdHktdXNlcnMtMzNhZTFlMjYtYmUzMS01YzFkLWJmNjUtZTg1OWU5ZDAzMDhlLWF0dHItNS10eXBlIiBjbGFzcz0iZXIgZW50aXR5TGFiZWwiPmlzQWRtaW48L3RleHQ+PHJlY3QgaGVpZ2h0PSIyMSIgd2lkdGg9IjY3Ljc2NTYyNSIgeT0iMTA4IiB4PSI4MS4zNTkzNzUiIGNsYXNzPSJlciBhdHRyaWJ1dGVCb3hPZGQiPjwvcmVjdD48dGV4dCBzdHlsZT0iZG9taW5hbnQtYmFzZWxpbmU6IG1pZGRsZTsgZm9udC1zaXplOiAxMC4ycHg7IiB0cmFuc2Zvcm09InRyYW5zbGF0ZSg4Ni4zNTkzNzUsMTE4LjUpIiB5PSIwIiB4PSIwIiBpZD0idGV4dC1lbnRpdHktdXNlcnMtMzNhZTFlMjYtYmUzMS01YzFkLWJmNjUtZTg1OWU5ZDAzMDhlLWF0dHItNS1uYW1lIiBjbGFzcz0iZXIgZW50aXR5TGFiZWwiPnRpbnlpbnQoNCk8L3RleHQ+PHJlY3QgaGVpZ2h0PSIyMSIgd2lkdGg9IjIzLjc5NDk4MjkxMDE1NjI1IiB5PSIxMDgiIHg9IjE0OS4xMjUiIGNsYXNzPSJlciBhdHRyaWJ1dGVCb3hPZGQiPjwvcmVjdD48dGV4dCBzdHlsZT0iZG9taW5hbnQtYmFzZWxpbmU6IG1pZGRsZTsgZm9udC1zaXplOiAxMC4ycHg7IiB0cmFuc2Zvcm09InRyYW5zbGF0ZSgxNTQuMTI1LDExOC41KSIgeT0iMCIgeD0iMCIgaWQ9InRleHQtZW50aXR5LXVzZXJzLTMzYWUxZTI2LWJlMzEtNWMxZC1iZjY1LWU4NTllOWQwMzA4ZS1hdHRyLTUta2V5IiBjbGFzcz0iZXIgZW50aXR5TGFiZWwiPjwvdGV4dD48cmVjdCBoZWlnaHQ9IjIxIiB3aWR0aD0iODEuMzU5Mzc1IiB5PSIxMjkiIHg9IjAiIGNsYXNzPSJlciBhdHRyaWJ1dGVCb3hFdmVuIj48L3JlY3Q+PHRleHQgc3R5bGU9ImRvbWluYW50LWJhc2VsaW5lOiBtaWRkbGU7IGZvbnQtc2l6ZTogMTAuMnB4OyIgdHJhbnNmb3JtPSJ0cmFuc2xhdGUoNSwxMzkuNSkiIHk9IjAiIHg9IjAiIGlkPSJ0ZXh0LWVudGl0eS11c2Vycy0zM2FlMWUyNi1iZTMxLTVjMWQtYmY2NS1lODU5ZTlkMDMwOGUtYXR0ci02LXR5cGUiIGNsYXNzPSJlciBlbnRpdHlMYWJlbCI+aXNMb2NrZWQ8L3RleHQ+PHJlY3QgaGVpZ2h0PSIyMSIgd2lkdGg9IjY3Ljc2NTYyNSIgeT0iMTI5IiB4PSI4MS4zNTkzNzUiIGNsYXNzPSJlciBhdHRyaWJ1dGVCb3hFdmVuIj48L3JlY3Q+PHRleHQgc3R5bGU9ImRvbWluYW50LWJhc2VsaW5lOiBtaWRkbGU7IGZvbnQtc2l6ZTogMTAuMnB4OyIgdHJhbnNmb3JtPSJ0cmFuc2xhdGUoODYuMzU5Mzc1LDEzOS41KSIgeT0iMCIgeD0iMCIgaWQ9InRleHQtZW50aXR5LXVzZXJzLTMzYWUxZTI2LWJlMzEtNWMxZC1iZjY1LWU4NTllOWQwMzA4ZS1hdHRyLTYtbmFtZSIgY2xhc3M9ImVyIGVudGl0eUxhYmVsIj50aW55aW50KDQpPC90ZXh0PjxyZWN0IGhlaWdodD0iMjEiIHdpZHRoPSIyMy43OTQ5ODI5MTAxNTYyNSIgeT0iMTI5IiB4PSIxNDkuMTI1IiBjbGFzcz0iZXIgYXR0cmlidXRlQm94RXZlbiI+PC9yZWN0Pjx0ZXh0IHN0eWxlPSJkb21pbmFudC1iYXNlbGluZTogbWlkZGxlOyBmb250LXNpemU6IDEwLjJweDsiIHRyYW5zZm9ybT0idHJhbnNsYXRlKDE1NC4xMjUsMTM5LjUpIiB5PSIwIiB4PSIwIiBpZD0idGV4dC1lbnRpdHktdXNlcnMtMzNhZTFlMjYtYmUzMS01YzFkLWJmNjUtZTg1OWU5ZDAzMDhlLWF0dHItNi1rZXkiIGNsYXNzPSJlciBlbnRpdHlMYWJlbCI+PC90ZXh0PjxyZWN0IGhlaWdodD0iMjEiIHdpZHRoPSI4MS4zNTkzNzUiIHk9IjE1MCIgeD0iMCIgY2xhc3M9ImVyIGF0dHJpYnV0ZUJveE9kZCI+PC9yZWN0Pjx0ZXh0IHN0eWxlPSJkb21pbmFudC1iYXNlbGluZTogbWlkZGxlOyBmb250LXNpemU6IDEwLjJweDsiIHRyYW5zZm9ybT0idHJhbnNsYXRlKDUsMTYwLjUpIiB5PSIwIiB4PSIwIiBpZD0idGV4dC1lbnRpdHktdXNlcnMtMzNhZTFlMjYtYmUzMS01YzFkLWJmNjUtZTg1OWU5ZDAzMDhlLWF0dHItNy10eXBlIiBjbGFzcz0iZXIgZW50aXR5TGFiZWwiPmxhc3RfbG9naW48L3RleHQ+PHJlY3QgaGVpZ2h0PSIyMSIgd2lkdGg9IjY3Ljc2NTYyNSIgeT0iMTUwIiB4PSI4MS4zNTkzNzUiIGNsYXNzPSJlciBhdHRyaWJ1dGVCb3hPZGQiPjwvcmVjdD48dGV4dCBzdHlsZT0iZG9taW5hbnQtYmFzZWxpbmU6IG1pZGRsZTsgZm9udC1zaXplOiAxMC4ycHg7IiB0cmFuc2Zvcm09InRyYW5zbGF0ZSg4Ni4zNTkzNzUsMTYwLjUpIiB5PSIwIiB4PSIwIiBpZD0idGV4dC1lbnRpdHktdXNlcnMtMzNhZTFlMjYtYmUzMS01YzFkLWJmNjUtZTg1OWU5ZDAzMDhlLWF0dHItNy1uYW1lIiBjbGFzcz0iZXIgZW50aXR5TGFiZWwiPnRpbWVzdGFtcDwvdGV4dD48cmVjdCBoZWlnaHQ9IjIxIiB3aWR0aD0iMjMuNzk0OTgyOTEwMTU2MjUiIHk9IjE1MCIgeD0iMTQ5LjEyNSIgY2xhc3M9ImVyIGF0dHJpYnV0ZUJveE9kZCI+PC9yZWN0Pjx0ZXh0IHN0eWxlPSJkb21pbmFudC1iYXNlbGluZTogbWlkZGxlOyBmb250LXNpemU6IDEwLjJweDsiIHRyYW5zZm9ybT0idHJhbnNsYXRlKDE1NC4xMjUsMTYwLjUpIiB5PSIwIiB4PSIwIiBpZD0idGV4dC1lbnRpdHktdXNlcnMtMzNhZTFlMjYtYmUzMS01YzFkLWJmNjUtZTg1OWU5ZDAzMDhlLWF0dHItNy1rZXkiIGNsYXNzPSJlciBlbnRpdHlMYWJlbCI+PC90ZXh0PjwvZz48ZyB0cmFuc2Zvcm09InRyYW5zbGF0ZSgyMCw0ODguNSApIiBpZD0iZW50aXR5LWJldXRlYmF0emVuLTk4OGExZjJkLWRkNDMtNThiYi1iMjUzLTNjM2IzYjlmYjg1YyI+PHJlY3QgaGVpZ2h0PSI2NiIgd2lkdGg9IjEyMC40Mjg4MzMwMDc4MTI1IiB5PSIwIiB4PSIwIiBjbGFzcz0iZXIgZW50aXR5Qm94Ij48L3JlY3Q+PHRleHQgc3R5bGU9ImRvbWluYW50LWJhc2VsaW5lOiBtaWRkbGU7IHRleHQtYW5jaG9yOiBtaWRkbGU7IGZvbnQtc2l6ZTogMTJweDsiIHRyYW5zZm9ybT0idHJhbnNsYXRlKDYwLjIxNDQxNjUwMzkwNjI1LDEyKSIgeT0iMCIgeD0iMCIgaWQ9InRleHQtZW50aXR5LWJldXRlYmF0emVuLTk4OGExZjJkLWRkNDMtNThiYi1iMjUzLTNjM2IzYjlmYjg1YyIgY2xhc3M9ImVyIGVudGl0eUxhYmVsIj5iZXV0ZV9iYXR6ZW48L3RleHQ+PHJlY3QgaGVpZ2h0PSIyMSIgd2lkdGg9IjQ0LjE0OTQ3NTA5NzY1NjI1IiB5PSIyNCIgeD0iMCIgY2xhc3M9ImVyIGF0dHJpYnV0ZUJveE9kZCI+PC9yZWN0Pjx0ZXh0IHN0eWxlPSJkb21pbmFudC1iYXNlbGluZTogbWlkZGxlOyBmb250LXNpemU6IDEwLjJweDsiIHRyYW5zZm9ybT0idHJhbnNsYXRlKDUsMzQuNSkiIHk9IjAiIHg9IjAiIGlkPSJ0ZXh0LWVudGl0eS1iZXV0ZWJhdHplbi05ODhhMWYyZC1kZDQzLTU4YmItYjI1My0zYzNiM2I5ZmI4NWMtYXR0ci0xLXR5cGUiIGNsYXNzPSJlciBlbnRpdHlMYWJlbCI+dXNlcl9pZDwvdGV4dD48cmVjdCBoZWlnaHQ9IjIxIiB3aWR0aD0iNTIuNDg0Mzc1IiB5PSIyNCIgeD0iNDQuMTQ5NDc1MDk3NjU2MjUiIGNsYXNzPSJlciBhdHRyaWJ1dGVCb3hPZGQiPjwvcmVjdD48dGV4dCBzdHlsZT0iZG9taW5hbnQtYmFzZWxpbmU6IG1pZGRsZTsgZm9udC1zaXplOiAxMC4ycHg7IiB0cmFuc2Zvcm09InRyYW5zbGF0ZSg0OS4xNDk0NzUwOTc2NTYyNSwzNC41KSIgeT0iMCIgeD0iMCIgaWQ9InRleHQtZW50aXR5LWJldXRlYmF0emVuLTk4OGExZjJkLWRkNDMtNThiYi1iMjUzLTNjM2IzYjlmYjg1Yy1hdHRyLTEtbmFtZSIgY2xhc3M9ImVyIGVudGl0eUxhYmVsIj5pbnQoMTEpPC90ZXh0PjxyZWN0IGhlaWdodD0iMjEiIHdpZHRoPSIyMy43OTQ5ODI5MTAxNTYyNSIgeT0iMjQiIHg9Ijk2LjYzMzg1MDA5NzY1NjI1IiBjbGFzcz0iZXIgYXR0cmlidXRlQm94T2RkIj48L3JlY3Q+PHRleHQgc3R5bGU9ImRvbWluYW50LWJhc2VsaW5lOiBtaWRkbGU7IGZvbnQtc2l6ZTogMTAuMnB4OyIgdHJhbnNmb3JtPSJ0cmFuc2xhdGUoMTAxLjYzMzg1MDA5NzY1NjI1LDM0LjUpIiB5PSIwIiB4PSIwIiBpZD0idGV4dC1lbnRpdHktYmV1dGViYXR6ZW4tOTg4YTFmMmQtZGQ0My01OGJiLWIyNTMtM2MzYjNiOWZiODVjLWF0dHItMS1rZXkiIGNsYXNzPSJlciBlbnRpdHlMYWJlbCI+UEs8L3RleHQ+PHJlY3QgaGVpZ2h0PSIyMSIgd2lkdGg9IjQ0LjE0OTQ3NTA5NzY1NjI1IiB5PSI0NSIgeD0iMCIgY2xhc3M9ImVyIGF0dHJpYnV0ZUJveEV2ZW4iPjwvcmVjdD48dGV4dCBzdHlsZT0iZG9taW5hbnQtYmFzZWxpbmU6IG1pZGRsZTsgZm9udC1zaXplOiAxMC4ycHg7IiB0cmFuc2Zvcm09InRyYW5zbGF0ZSg1LDU1LjUpIiB5PSIwIiB4PSIwIiBpZD0idGV4dC1lbnRpdHktYmV1dGViYXR6ZW4tOTg4YTFmMmQtZGQ0My01OGJiLWIyNTMtM2MzYjNiOWZiODVjLWF0dHItMi10eXBlIiBjbGFzcz0iZXIgZW50aXR5TGFiZWwiPmFtb3VudDwvdGV4dD48cmVjdCBoZWlnaHQ9IjIxIiB3aWR0aD0iNTIuNDg0Mzc1IiB5PSI0NSIgeD0iNDQuMTQ5NDc1MDk3NjU2MjUiIGNsYXNzPSJlciBhdHRyaWJ1dGVCb3hFdmVuIj48L3JlY3Q+PHRleHQgc3R5bGU9ImRvbWluYW50LWJhc2VsaW5lOiBtaWRkbGU7IGZvbnQtc2l6ZTogMTAuMnB4OyIgdHJhbnNmb3JtPSJ0cmFuc2xhdGUoNDkuMTQ5NDc1MDk3NjU2MjUsNTUuNSkiIHk9IjAiIHg9IjAiIGlkPSJ0ZXh0LWVudGl0eS1iZXV0ZWJhdHplbi05ODhhMWYyZC1kZDQzLTU4YmItYjI1My0zYzNiM2I5ZmI4NWMtYXR0ci0yLW5hbWUiIGNsYXNzPSJlciBlbnRpdHlMYWJlbCI+YmlnaW50KDUwKTwvdGV4dD48cmVjdCBoZWlnaHQ9IjIxIiB3aWR0aD0iMjMuNzk0OTgyOTEwMTU2MjUiIHk9IjQ1IiB4PSI5Ni42MzM4NTAwOTc2NTYyNSIgY2xhc3M9ImVyIGF0dHJpYnV0ZUJveEV2ZW4iPjwvcmVjdD48dGV4dCBzdHlsZT0iZG9taW5hbnQtYmFzZWxpbmU6IG1pZGRsZTsgZm9udC1zaXplOiAxMC4ycHg7IiB0cmFuc2Zvcm09InRyYW5zbGF0ZSgxMDEuNjMzODUwMDk3NjU2MjUsNTUuNSkiIHk9IjAiIHg9IjAiIGlkPSJ0ZXh0LWVudGl0eS1iZXV0ZWJhdHplbi05ODhhMWYyZC1kZDQzLTU4YmItYjI1My0zYzNiM2I5ZmI4NWMtYXR0ci0yLWtleSIgY2xhc3M9ImVyIGVudGl0eUxhYmVsIj48L3RleHQ+PC9nPjxnIHRyYW5zZm9ybT0idHJhbnNsYXRlKDMxNy44MTAxOTU5MjI4NTE1NiwyMCApIiBpZD0iZW50aXR5LXRhcmdldHMtYjY5ODMzYWUtNTM4YS01ZmNiLWJjODEtZTIzOTc0NmM3NmZiIj48cmVjdCBoZWlnaHQ9Ijg3IiB3aWR0aD0iMjk0LjgwMDM1NDAwMzkwNjI1IiB5PSIwIiB4PSIwIiBjbGFzcz0iZXIgZW50aXR5Qm94Ij48L3JlY3Q+PHRleHQgc3R5bGU9ImRvbWluYW50LWJhc2VsaW5lOiBtaWRkbGU7IHRleHQtYW5jaG9yOiBtaWRkbGU7IGZvbnQtc2l6ZTogMTJweDsiIHRyYW5zZm9ybT0idHJhbnNsYXRlKDE0Ny40MDAxNzcwMDE5NTMxMiwxMikiIHk9IjAiIHg9IjAiIGlkPSJ0ZXh0LWVudGl0eS10YXJnZXRzLWI2OTgzM2FlLTUzOGEtNWZjYi1iYzgxLWUyMzk3NDZjNzZmYiIgY2xhc3M9ImVyIGVudGl0eUxhYmVsIj50YXJnZXRzPC90ZXh0PjxyZWN0IGhlaWdodD0iMjEiIHdpZHRoPSIzNS44MTc4NzEwOTM3NSIgeT0iMjQiIHg9IjAiIGNsYXNzPSJlciBhdHRyaWJ1dGVCb3hPZGQiPjwvcmVjdD48dGV4dCBzdHlsZT0iZG9taW5hbnQtYmFzZWxpbmU6IG1pZGRsZTsgZm9udC1zaXplOiAxMC4ycHg7IiB0cmFuc2Zvcm09InRyYW5zbGF0ZSg1LDM0LjUpIiB5PSIwIiB4PSIwIiBpZD0idGV4dC1lbnRpdHktdGFyZ2V0cy1iNjk4MzNhZS01MzhhLTVmY2ItYmM4MS1lMjM5NzQ2Yzc2ZmItYXR0ci0xLXR5cGUiIGNsYXNzPSJlciBlbnRpdHlMYWJlbCI+aWQ8L3RleHQ+PHJlY3QgaGVpZ2h0PSIyMSIgd2lkdGg9IjY3Ljc2NTYyNSIgeT0iMjQiIHg9IjM1LjgxNzg3MTA5Mzc1IiBjbGFzcz0iZXIgYXR0cmlidXRlQm94T2RkIj48L3JlY3Q+PHRleHQgc3R5bGU9ImRvbWluYW50LWJhc2VsaW5lOiBtaWRkbGU7IGZvbnQtc2l6ZTogMTAuMnB4OyIgdHJhbnNmb3JtPSJ0cmFuc2xhdGUoNDAuODE3ODcxMDkzNzUsMzQuNSkiIHk9IjAiIHg9IjAiIGlkPSJ0ZXh0LWVudGl0eS10YXJnZXRzLWI2OTgzM2FlLTUzOGEtNWZjYi1iYzgxLWUyMzk3NDZjNzZmYi1hdHRyLTEtbmFtZSIgY2xhc3M9ImVyIGVudGl0eUxhYmVsIj5pbnQoMTApPC90ZXh0PjxyZWN0IGhlaWdodD0iMjEiIHdpZHRoPSIyMy43OTQ5ODI5MTAxNTYyNSIgeT0iMjQiIHg9IjEwMy41ODM0OTYwOTM3NSIgY2xhc3M9ImVyIGF0dHJpYnV0ZUJveE9kZCI+PC9yZWN0Pjx0ZXh0IHN0eWxlPSJkb21pbmFudC1iYXNlbGluZTogbWlkZGxlOyBmb250LXNpemU6IDEwLjJweDsiIHRyYW5zZm9ybT0idHJhbnNsYXRlKDEwOC41ODM0OTYwOTM3NSwzNC41KSIgeT0iMCIgeD0iMCIgaWQ9InRleHQtZW50aXR5LXRhcmdldHMtYjY5ODMzYWUtNTM4YS01ZmNiLWJjODEtZTIzOTc0NmM3NmZiLWF0dHItMS1rZXkiIGNsYXNzPSJlciBlbnRpdHlMYWJlbCI+UEs8L3RleHQ+PHJlY3QgaGVpZ2h0PSIyMSIgd2lkdGg9IjE2Ny40MjE4NzUiIHk9IjI0IiB4PSIxMjcuMzc4NDc5MDAzOTA2MjUiIGNsYXNzPSJlciBhdHRyaWJ1dGVCb3hPZGQiPjwvcmVjdD48dGV4dCBzdHlsZT0iZG9taW5hbnQtYmFzZWxpbmU6IG1pZGRsZTsgZm9udC1zaXplOiAxMC4ycHg7IiB0cmFuc2Zvcm09InRyYW5zbGF0ZSgxMzIuMzc4NDc5MDAzOTA2MjUsMzQuNSkiIHk9IjAiIHg9IjAiIGlkPSJ0ZXh0LWVudGl0eS10YXJnZXRzLWI2OTgzM2FlLTUzOGEtNWZjYi1iYzgxLWUyMzk3NDZjNzZmYi1hdHRyLTEtY29tbWVudCIgY2xhc3M9ImVyIGVudGl0eUxhYmVsIj48L3RleHQ+PHJlY3QgaGVpZ2h0PSIyMSIgd2lkdGg9IjM1LjgxNzg3MTA5Mzc1IiB5PSI0NSIgeD0iMCIgY2xhc3M9ImVyIGF0dHJpYnV0ZUJveEV2ZW4iPjwvcmVjdD48dGV4dCBzdHlsZT0iZG9taW5hbnQtYmFzZWxpbmU6IG1pZGRsZTsgZm9udC1zaXplOiAxMC4ycHg7IiB0cmFuc2Zvcm09InRyYW5zbGF0ZSg1LDU1LjUpIiB5PSIwIiB4PSIwIiBpZD0idGV4dC1lbnRpdHktdGFyZ2V0cy1iNjk4MzNhZS01MzhhLTVmY2ItYmM4MS1lMjM5NzQ2Yzc2ZmItYXR0ci0yLXR5cGUiIGNsYXNzPSJlciBlbnRpdHlMYWJlbCI+bmFtZTwvdGV4dD48cmVjdCBoZWlnaHQ9IjIxIiB3aWR0aD0iNjcuNzY1NjI1IiB5PSI0NSIgeD0iMzUuODE3ODcxMDkzNzUiIGNsYXNzPSJlciBhdHRyaWJ1dGVCb3hFdmVuIj48L3JlY3Q+PHRleHQgc3R5bGU9ImRvbWluYW50LWJhc2VsaW5lOiBtaWRkbGU7IGZvbnQtc2l6ZTogMTAuMnB4OyIgdHJhbnNmb3JtPSJ0cmFuc2xhdGUoNDAuODE3ODcxMDkzNzUsNTUuNSkiIHk9IjAiIHg9IjAiIGlkPSJ0ZXh0LWVudGl0eS10YXJnZXRzLWI2OTgzM2FlLTUzOGEtNWZjYi1iYzgxLWUyMzk3NDZjNzZmYi1hdHRyLTItbmFtZSIgY2xhc3M9ImVyIGVudGl0eUxhYmVsIj52YXJjaGFyKDEwMCk8L3RleHQ+PHJlY3QgaGVpZ2h0PSIyMSIgd2lkdGg9IjIzLjc5NDk4MjkxMDE1NjI1IiB5PSI0NSIgeD0iMTAzLjU4MzQ5NjA5Mzc1IiBjbGFzcz0iZXIgYXR0cmlidXRlQm94RXZlbiI+PC9yZWN0Pjx0ZXh0IHN0eWxlPSJkb21pbmFudC1iYXNlbGluZTogbWlkZGxlOyBmb250LXNpemU6IDEwLjJweDsiIHRyYW5zZm9ybT0idHJhbnNsYXRlKDEwOC41ODM0OTYwOTM3NSw1NS41KSIgeT0iMCIgeD0iMCIgaWQ9InRleHQtZW50aXR5LXRhcmdldHMtYjY5ODMzYWUtNTM4YS01ZmNiLWJjODEtZTIzOTc0NmM3NmZiLWF0dHItMi1rZXkiIGNsYXNzPSJlciBlbnRpdHlMYWJlbCI+PC90ZXh0PjxyZWN0IGhlaWdodD0iMjEiIHdpZHRoPSIxNjcuNDIxODc1IiB5PSI0NSIgeD0iMTI3LjM3ODQ3OTAwMzkwNjI1IiBjbGFzcz0iZXIgYXR0cmlidXRlQm94RXZlbiI+PC9yZWN0Pjx0ZXh0IHN0eWxlPSJkb21pbmFudC1iYXNlbGluZTogbWlkZGxlOyBmb250LXNpemU6IDEwLjJweDsiIHRyYW5zZm9ybT0idHJhbnNsYXRlKDEzMi4zNzg0NzkwMDM5MDYyNSw1NS41KSIgeT0iMCIgeD0iMCIgaWQ9InRleHQtZW50aXR5LXRhcmdldHMtYjY5ODMzYWUtNTM4YS01ZmNiLWJjODEtZTIzOTc0NmM3NmZiLWF0dHItMi1jb21tZW50IiBjbGFzcz0iZXIgZW50aXR5TGFiZWwiPjwvdGV4dD48cmVjdCBoZWlnaHQ9IjIxIiB3aWR0aD0iMzUuODE3ODcxMDkzNzUiIHk9IjY2IiB4PSIwIiBjbGFzcz0iZXIgYXR0cmlidXRlQm94T2RkIj48L3JlY3Q+PHRleHQgc3R5bGU9ImRvbWluYW50LWJhc2VsaW5lOiBtaWRkbGU7IGZvbnQtc2l6ZTogMTAuMnB4OyIgdHJhbnNmb3JtPSJ0cmFuc2xhdGUoNSw3Ni41KSIgeT0iMCIgeD0iMCIgaWQ9InRleHQtZW50aXR5LXRhcmdldHMtYjY5ODMzYWUtNTM4YS01ZmNiLWJjODEtZTIzOTc0NmM3NmZiLWF0dHItMy10eXBlIiBjbGFzcz0iZXIgZW50aXR5TGFiZWwiPnR5cDwvdGV4dD48cmVjdCBoZWlnaHQ9IjIxIiB3aWR0aD0iNjcuNzY1NjI1IiB5PSI2NiIgeD0iMzUuODE3ODcxMDkzNzUiIGNsYXNzPSJlciBhdHRyaWJ1dGVCb3hPZGQiPjwvcmVjdD48dGV4dCBzdHlsZT0iZG9taW5hbnQtYmFzZWxpbmU6IG1pZGRsZTsgZm9udC1zaXplOiAxMC4ycHg7IiB0cmFuc2Zvcm09InRyYW5zbGF0ZSg0MC44MTc4NzEwOTM3NSw3Ni41KSIgeT0iMCIgeD0iMCIgaWQ9InRleHQtZW50aXR5LXRhcmdldHMtYjY5ODMzYWUtNTM4YS01ZmNiLWJjODEtZTIzOTc0NmM3NmZiLWF0dHItMy1uYW1lIiBjbGFzcz0iZXIgZW50aXR5TGFiZWwiPnN0cmluZzwvdGV4dD48cmVjdCBoZWlnaHQ9IjIxIiB3aWR0aD0iMjMuNzk0OTgyOTEwMTU2MjUiIHk9IjY2IiB4PSIxMDMuNTgzNDk2MDkzNzUiIGNsYXNzPSJlciBhdHRyaWJ1dGVCb3hPZGQiPjwvcmVjdD48dGV4dCBzdHlsZT0iZG9taW5hbnQtYmFzZWxpbmU6IG1pZGRsZTsgZm9udC1zaXplOiAxMC4ycHg7IiB0cmFuc2Zvcm09InRyYW5zbGF0ZSgxMDguNTgzNDk2MDkzNzUsNzYuNSkiIHk9IjAiIHg9IjAiIGlkPSJ0ZXh0LWVudGl0eS10YXJnZXRzLWI2OTgzM2FlLTUzOGEtNWZjYi1iYzgxLWUyMzk3NDZjNzZmYi1hdHRyLTMta2V5IiBjbGFzcz0iZXIgZW50aXR5TGFiZWwiPjwvdGV4dD48cmVjdCBoZWlnaHQ9IjIxIiB3aWR0aD0iMTY3LjQyMTg3NSIgeT0iNjYiIHg9IjEyNy4zNzg0NzkwMDM5MDYyNSIgY2xhc3M9ImVyIGF0dHJpYnV0ZUJveE9kZCI+PC9yZWN0Pjx0ZXh0IHN0eWxlPSJkb21pbmFudC1iYXNlbGluZTogbWlkZGxlOyBmb250LXNpemU6IDEwLjJweDsiIHRyYW5zZm9ybT0idHJhbnNsYXRlKDEzMi4zNzg0NzkwMDM5MDYyNSw3Ni41KSIgeT0iMCIgeD0iMCIgaWQ9InRleHQtZW50aXR5LXRhcmdldHMtYjY5ODMzYWUtNTM4YS01ZmNiLWJjODEtZTIzOTc0NmM3NmZiLWF0dHItMy1jb21tZW50IiBjbGFzcz0iZXIgZW50aXR5TGFiZWwiPmVudW06IFByb2R1a3Rpb24sIEtsaWNrLCBTb25zdGlnZXM8L3RleHQ+PC9nPjxnIHRyYW5zZm9ybT0idHJhbnNsYXRlKDMxNi42NzQ0MDc5NTg5ODQ0LDIwNyApIiBpZD0iZW50aXR5LXVwZ3JhZGVzLTIxZmViOTA0LTcwMGItNTUyNi05NTZlLTBiM2UwNjNjOTNkNSI+PHJlY3QgaGVpZ2h0PSIxNzEiIHdpZHRoPSIyOTcuMDcxOTI5OTMxNjQwNiIgeT0iMCIgeD0iMCIgY2xhc3M9ImVyIGVudGl0eUJveCI+PC9yZWN0Pjx0ZXh0IHN0eWxlPSJkb21pbmFudC1iYXNlbGluZTogbWlkZGxlOyB0ZXh0LWFuY2hvcjogbWlkZGxlOyBmb250LXNpemU6IDEycHg7IiB0cmFuc2Zvcm09InRyYW5zbGF0ZSgxNDguNTM1OTY0OTY1ODIwMywxMikiIHk9IjAiIHg9IjAiIGlkPSJ0ZXh0LWVudGl0eS11cGdyYWRlcy0yMWZlYjkwNC03MDBiLTU1MjYtOTU2ZS0wYjNlMDYzYzkzZDUiIGNsYXNzPSJlciBlbnRpdHlMYWJlbCI+dXBncmFkZXM8L3RleHQ+PHJlY3QgaGVpZ2h0PSIyMSIgd2lkdGg9IjU1Ljg3NSIgeT0iMjQiIHg9IjAiIGNsYXNzPSJlciBhdHRyaWJ1dGVCb3hPZGQiPjwvcmVjdD48dGV4dCBzdHlsZT0iZG9taW5hbnQtYmFzZWxpbmU6IG1pZGRsZTsgZm9udC1zaXplOiAxMC4ycHg7IiB0cmFuc2Zvcm09InRyYW5zbGF0ZSg1LDM0LjUpIiB5PSIwIiB4PSIwIiBpZD0idGV4dC1lbnRpdHktdXBncmFkZXMtMjFmZWI5MDQtNzAwYi01NTI2LTk1NmUtMGIzZTA2M2M5M2Q1LWF0dHItMS10eXBlIiBjbGFzcz0iZXIgZW50aXR5TGFiZWwiPmlkPC90ZXh0PjxyZWN0IGhlaWdodD0iMjEiIHdpZHRoPSI2Ny43NjU2MjUiIHk9IjI0IiB4PSI1NS44NzUiIGNsYXNzPSJlciBhdHRyaWJ1dGVCb3hPZGQiPjwvcmVjdD48dGV4dCBzdHlsZT0iZG9taW5hbnQtYmFzZWxpbmU6IG1pZGRsZTsgZm9udC1zaXplOiAxMC4ycHg7IiB0cmFuc2Zvcm09InRyYW5zbGF0ZSg2MC44NzUsMzQuNSkiIHk9IjAiIHg9IjAiIGlkPSJ0ZXh0LWVudGl0eS11cGdyYWRlcy0yMWZlYjkwNC03MDBiLTU1MjYtOTU2ZS0wYjNlMDYzYzkzZDUtYXR0ci0xLW5hbWUiIGNsYXNzPSJlciBlbnRpdHlMYWJlbCI+aW50KDExKTwvdGV4dD48cmVjdCBoZWlnaHQ9IjIxIiB3aWR0aD0iMjMuNzk0OTgyOTEwMTU2MjUiIHk9IjI0IiB4PSIxMjMuNjQwNjI1IiBjbGFzcz0iZXIgYXR0cmlidXRlQm94T2RkIj48L3JlY3Q+PHRleHQgc3R5bGU9ImRvbWluYW50LWJhc2VsaW5lOiBtaWRkbGU7IGZvbnQtc2l6ZTogMTAuMnB4OyIgdHJhbnNmb3JtPSJ0cmFuc2xhdGUoMTI4LjY0MDYyNSwzNC41KSIgeT0iMCIgeD0iMCIgaWQ9InRleHQtZW50aXR5LXVwZ3JhZGVzLTIxZmViOTA0LTcwMGItNTUyNi05NTZlLTBiM2UwNjNjOTNkNS1hdHRyLTEta2V5IiBjbGFzcz0iZXIgZW50aXR5TGFiZWwiPlBLPC90ZXh0PjxyZWN0IGhlaWdodD0iMjEiIHdpZHRoPSIxNDkuNjM2MzIyMDIxNDg0MzgiIHk9IjI0IiB4PSIxNDcuNDM1NjA3OTEwMTU2MjUiIGNsYXNzPSJlciBhdHRyaWJ1dGVCb3hPZGQiPjwvcmVjdD48dGV4dCBzdHlsZT0iZG9taW5hbnQtYmFzZWxpbmU6IG1pZGRsZTsgZm9udC1zaXplOiAxMC4ycHg7IiB0cmFuc2Zvcm09InRyYW5zbGF0ZSgxNTIuNDM1NjA3OTEwMTU2MjUsMzQuNSkiIHk9IjAiIHg9IjAiIGlkPSJ0ZXh0LWVudGl0eS11cGdyYWRlcy0yMWZlYjkwNC03MDBiLTU1MjYtOTU2ZS0wYjNlMDYzYzkzZDUtYXR0ci0xLWNvbW1lbnQiIGNsYXNzPSJlciBlbnRpdHlMYWJlbCI+PC90ZXh0PjxyZWN0IGhlaWdodD0iMjEiIHdpZHRoPSI1NS44NzUiIHk9IjQ1IiB4PSIwIiBjbGFzcz0iZXIgYXR0cmlidXRlQm94RXZlbiI+PC9yZWN0Pjx0ZXh0IHN0eWxlPSJkb21pbmFudC1iYXNlbGluZTogbWlkZGxlOyBmb250LXNpemU6IDEwLjJweDsiIHRyYW5zZm9ybT0idHJhbnNsYXRlKDUsNTUuNSkiIHk9IjAiIHg9IjAiIGlkPSJ0ZXh0LWVudGl0eS11cGdyYWRlcy0yMWZlYjkwNC03MDBiLTU1MjYtOTU2ZS0wYjNlMDYzYzkzZDUtYXR0ci0yLXR5cGUiIGNsYXNzPSJlciBlbnRpdHlMYWJlbCI+bmFtZTwvdGV4dD48cmVjdCBoZWlnaHQ9IjIxIiB3aWR0aD0iNjcuNzY1NjI1IiB5PSI0NSIgeD0iNTUuODc1IiBjbGFzcz0iZXIgYXR0cmlidXRlQm94RXZlbiI+PC9yZWN0Pjx0ZXh0IHN0eWxlPSJkb21pbmFudC1iYXNlbGluZTogbWlkZGxlOyBmb250LXNpemU6IDEwLjJweDsiIHRyYW5zZm9ybT0idHJhbnNsYXRlKDYwLjg3NSw1NS41KSIgeT0iMCIgeD0iMCIgaWQ9InRleHQtZW50aXR5LXVwZ3JhZGVzLTIxZmViOTA0LTcwMGItNTUyNi05NTZlLTBiM2UwNjNjOTNkNS1hdHRyLTItbmFtZSIgY2xhc3M9ImVyIGVudGl0eUxhYmVsIj52YXJjaGFyKDEwMCk8L3RleHQ+PHJlY3QgaGVpZ2h0PSIyMSIgd2lkdGg9IjIzLjc5NDk4MjkxMDE1NjI1IiB5PSI0NSIgeD0iMTIzLjY0MDYyNSIgY2xhc3M9ImVyIGF0dHJpYnV0ZUJveEV2ZW4iPjwvcmVjdD48dGV4dCBzdHlsZT0iZG9taW5hbnQtYmFzZWxpbmU6IG1pZGRsZTsgZm9udC1zaXplOiAxMC4ycHg7IiB0cmFuc2Zvcm09InRyYW5zbGF0ZSgxMjguNjQwNjI1LDU1LjUpIiB5PSIwIiB4PSIwIiBpZD0idGV4dC1lbnRpdHktdXBncmFkZXMtMjFmZWI5MDQtNzAwYi01NTI2LTk1NmUtMGIzZTA2M2M5M2Q1LWF0dHItMi1rZXkiIGNsYXNzPSJlciBlbnRpdHlMYWJlbCI+PC90ZXh0PjxyZWN0IGhlaWdodD0iMjEiIHdpZHRoPSIxNDkuNjM2MzIyMDIxNDg0MzgiIHk9IjQ1IiB4PSIxNDcuNDM1NjA3OTEwMTU2MjUiIGNsYXNzPSJlciBhdHRyaWJ1dGVCb3hFdmVuIj48L3JlY3Q+PHRleHQgc3R5bGU9ImRvbWluYW50LWJhc2VsaW5lOiBtaWRkbGU7IGZvbnQtc2l6ZTogMTAuMnB4OyIgdHJhbnNmb3JtPSJ0cmFuc2xhdGUoMTUyLjQzNTYwNzkxMDE1NjI1LDU1LjUpIiB5PSIwIiB4PSIwIiBpZD0idGV4dC1lbnRpdHktdXBncmFkZXMtMjFmZWI5MDQtNzAwYi01NTI2LTk1NmUtMGIzZTA2M2M5M2Q1LWF0dHItMi1jb21tZW50IiBjbGFzcz0iZXIgZW50aXR5TGFiZWwiPjwvdGV4dD48cmVjdCBoZWlnaHQ9IjIxIiB3aWR0aD0iNTUuODc1IiB5PSI2NiIgeD0iMCIgY2xhc3M9ImVyIGF0dHJpYnV0ZUJveE9kZCI+PC9yZWN0Pjx0ZXh0IHN0eWxlPSJkb21pbmFudC1iYXNlbGluZTogbWlkZGxlOyBmb250LXNpemU6IDEwLjJweDsiIHRyYW5zZm9ybT0idHJhbnNsYXRlKDUsNzYuNSkiIHk9IjAiIHg9IjAiIGlkPSJ0ZXh0LWVudGl0eS11cGdyYWRlcy0yMWZlYjkwNC03MDBiLTU1MjYtOTU2ZS0wYjNlMDYzYzkzZDUtYXR0ci0zLXR5cGUiIGNsYXNzPSJlciBlbnRpdHlMYWJlbCI+YmFzaXNwcmVpczwvdGV4dD48cmVjdCBoZWlnaHQ9IjIxIiB3aWR0aD0iNjcuNzY1NjI1IiB5PSI2NiIgeD0iNTUuODc1IiBjbGFzcz0iZXIgYXR0cmlidXRlQm94T2RkIj48L3JlY3Q+PHRleHQgc3R5bGU9ImRvbWluYW50LWJhc2VsaW5lOiBtaWRkbGU7IGZvbnQtc2l6ZTogMTAuMnB4OyIgdHJhbnNmb3JtPSJ0cmFuc2xhdGUoNjAuODc1LDc2LjUpIiB5PSIwIiB4PSIwIiBpZD0idGV4dC1lbnRpdHktdXBncmFkZXMtMjFmZWI5MDQtNzAwYi01NTI2LTk1NmUtMGIzZTA2M2M5M2Q1LWF0dHItMy1uYW1lIiBjbGFzcz0iZXIgZW50aXR5TGFiZWwiPmludCgxMSk8L3RleHQ+PHJlY3QgaGVpZ2h0PSIyMSIgd2lkdGg9IjIzLjc5NDk4MjkxMDE1NjI1IiB5PSI2NiIgeD0iMTIzLjY0MDYyNSIgY2xhc3M9ImVyIGF0dHJpYnV0ZUJveE9kZCI+PC9yZWN0Pjx0ZXh0IHN0eWxlPSJkb21pbmFudC1iYXNlbGluZTogbWlkZGxlOyBmb250LXNpemU6IDEwLjJweDsiIHRyYW5zZm9ybT0idHJhbnNsYXRlKDEyOC42NDA2MjUsNzYuNSkiIHk9IjAiIHg9IjAiIGlkPSJ0ZXh0LWVudGl0eS11cGdyYWRlcy0yMWZlYjkwNC03MDBiLTU1MjYtOTU2ZS0wYjNlMDYzYzkzZDUtYXR0ci0zLWtleSIgY2xhc3M9ImVyIGVudGl0eUxhYmVsIj48L3RleHQ+PHJlY3QgaGVpZ2h0PSIyMSIgd2lkdGg9IjE0OS42MzYzMjIwMjE0ODQzOCIgeT0iNjYiIHg9IjE0Ny40MzU2MDc5MTAxNTYyNSIgY2xhc3M9ImVyIGF0dHJpYnV0ZUJveE9kZCI+PC9yZWN0Pjx0ZXh0IHN0eWxlPSJkb21pbmFudC1iYXNlbGluZTogbWlkZGxlOyBmb250LXNpemU6IDEwLjJweDsiIHRyYW5zZm9ybT0idHJhbnNsYXRlKDE1Mi40MzU2MDc5MTAxNTYyNSw3Ni41KSIgeT0iMCIgeD0iMCIgaWQ9InRleHQtZW50aXR5LXVwZ3JhZGVzLTIxZmViOTA0LTcwMGItNTUyNi05NTZlLTBiM2UwNjNjOTNkNS1hdHRyLTMtY29tbWVudCIgY2xhc3M9ImVyIGVudGl0eUxhYmVsIj48L3RleHQ+PHJlY3QgaGVpZ2h0PSIyMSIgd2lkdGg9IjU1Ljg3NSIgeT0iODciIHg9IjAiIGNsYXNzPSJlciBhdHRyaWJ1dGVCb3hFdmVuIj48L3JlY3Q+PHRleHQgc3R5bGU9ImRvbWluYW50LWJhc2VsaW5lOiBtaWRkbGU7IGZvbnQtc2l6ZTogMTAuMnB4OyIgdHJhbnNmb3JtPSJ0cmFuc2xhdGUoNSw5Ny41KSIgeT0iMCIgeD0iMCIgaWQ9InRleHQtZW50aXR5LXVwZ3JhZGVzLTIxZmViOTA0LTcwMGItNTUyNi05NTZlLTBiM2UwNjNjOTNkNS1hdHRyLTQtdHlwZSIgY2xhc3M9ImVyIGVudGl0eUxhYmVsIj5lZmZla3RhcnQ8L3RleHQ+PHJlY3QgaGVpZ2h0PSIyMSIgd2lkdGg9IjY3Ljc2NTYyNSIgeT0iODciIHg9IjU1Ljg3NSIgY2xhc3M9ImVyIGF0dHJpYnV0ZUJveEV2ZW4iPjwvcmVjdD48dGV4dCBzdHlsZT0iZG9taW5hbnQtYmFzZWxpbmU6IG1pZGRsZTsgZm9udC1zaXplOiAxMC4ycHg7IiB0cmFuc2Zvcm09InRyYW5zbGF0ZSg2MC44NzUsOTcuNSkiIHk9IjAiIHg9IjAiIGlkPSJ0ZXh0LWVudGl0eS11cGdyYWRlcy0yMWZlYjkwNC03MDBiLTU1MjYtOTU2ZS0wYjNlMDYzYzkzZDUtYXR0ci00LW5hbWUiIGNsYXNzPSJlciBlbnRpdHlMYWJlbCI+c3RyaW5nPC90ZXh0PjxyZWN0IGhlaWdodD0iMjEiIHdpZHRoPSIyMy43OTQ5ODI5MTAxNTYyNSIgeT0iODciIHg9IjEyMy42NDA2MjUiIGNsYXNzPSJlciBhdHRyaWJ1dGVCb3hFdmVuIj48L3JlY3Q+PHRleHQgc3R5bGU9ImRvbWluYW50LWJhc2VsaW5lOiBtaWRkbGU7IGZvbnQtc2l6ZTogMTAuMnB4OyIgdHJhbnNmb3JtPSJ0cmFuc2xhdGUoMTI4LjY0MDYyNSw5Ny41KSIgeT0iMCIgeD0iMCIgaWQ9InRleHQtZW50aXR5LXVwZ3JhZGVzLTIxZmViOTA0LTcwMGItNTUyNi05NTZlLTBiM2UwNjNjOTNkNS1hdHRyLTQta2V5IiBjbGFzcz0iZXIgZW50aXR5TGFiZWwiPjwvdGV4dD48cmVjdCBoZWlnaHQ9IjIxIiB3aWR0aD0iMTQ5LjYzNjMyMjAyMTQ4NDM4IiB5PSI4NyIgeD0iMTQ3LjQzNTYwNzkxMDE1NjI1IiBjbGFzcz0iZXIgYXR0cmlidXRlQm94RXZlbiI+PC9yZWN0Pjx0ZXh0IHN0eWxlPSJkb21pbmFudC1iYXNlbGluZTogbWlkZGxlOyBmb250LXNpemU6IDEwLjJweDsiIHRyYW5zZm9ybT0idHJhbnNsYXRlKDE1Mi40MzU2MDc5MTAxNTYyNSw5Ny41KSIgeT0iMCIgeD0iMCIgaWQ9InRleHQtZW50aXR5LXVwZ3JhZGVzLTIxZmViOTA0LTcwMGItNTUyNi05NTZlLTBiM2UwNjNjOTNkNS1hdHRyLTQtY29tbWVudCIgY2xhc3M9ImVyIGVudGl0eUxhYmVsIj5lbnVtOiBwcm96ZW50LCBhYnNvbHV0PC90ZXh0PjxyZWN0IGhlaWdodD0iMjEiIHdpZHRoPSI1NS44NzUiIHk9IjEwOCIgeD0iMCIgY2xhc3M9ImVyIGF0dHJpYnV0ZUJveE9kZCI+PC9yZWN0Pjx0ZXh0IHN0eWxlPSJkb21pbmFudC1iYXNlbGluZTogbWlkZGxlOyBmb250LXNpemU6IDEwLjJweDsiIHRyYW5zZm9ybT0idHJhbnNsYXRlKDUsMTE4LjUpIiB5PSIwIiB4PSIwIiBpZD0idGV4dC1lbnRpdHktdXBncmFkZXMtMjFmZWI5MDQtNzAwYi01NTI2LTk1NmUtMGIzZTA2M2M5M2Q1LWF0dHItNS10eXBlIiBjbGFzcz0iZXIgZW50aXR5TGFiZWwiPmVmZmVrdHdlcnQ8L3RleHQ+PHJlY3QgaGVpZ2h0PSIyMSIgd2lkdGg9IjY3Ljc2NTYyNSIgeT0iMTA4IiB4PSI1NS44NzUiIGNsYXNzPSJlciBhdHRyaWJ1dGVCb3hPZGQiPjwvcmVjdD48dGV4dCBzdHlsZT0iZG9taW5hbnQtYmFzZWxpbmU6IG1pZGRsZTsgZm9udC1zaXplOiAxMC4ycHg7IiB0cmFuc2Zvcm09InRyYW5zbGF0ZSg2MC44NzUsMTE4LjUpIiB5PSIwIiB4PSIwIiBpZD0idGV4dC1lbnRpdHktdXBncmFkZXMtMjFmZWI5MDQtNzAwYi01NTI2LTk1NmUtMGIzZTA2M2M5M2Q1LWF0dHItNS1uYW1lIiBjbGFzcz0iZXIgZW50aXR5TGFiZWwiPmRvdWJsZTwvdGV4dD48cmVjdCBoZWlnaHQ9IjIxIiB3aWR0aD0iMjMuNzk0OTgyOTEwMTU2MjUiIHk9IjEwOCIgeD0iMTIzLjY0MDYyNSIgY2xhc3M9ImVyIGF0dHJpYnV0ZUJveE9kZCI+PC9yZWN0Pjx0ZXh0IHN0eWxlPSJkb21pbmFudC1iYXNlbGluZTogbWlkZGxlOyBmb250LXNpemU6IDEwLjJweDsiIHRyYW5zZm9ybT0idHJhbnNsYXRlKDEyOC42NDA2MjUsMTE4LjUpIiB5PSIwIiB4PSIwIiBpZD0idGV4dC1lbnRpdHktdXBncmFkZXMtMjFmZWI5MDQtNzAwYi01NTI2LTk1NmUtMGIzZTA2M2M5M2Q1LWF0dHItNS1rZXkiIGNsYXNzPSJlciBlbnRpdHlMYWJlbCI+PC90ZXh0PjxyZWN0IGhlaWdodD0iMjEiIHdpZHRoPSIxNDkuNjM2MzIyMDIxNDg0MzgiIHk9IjEwOCIgeD0iMTQ3LjQzNTYwNzkxMDE1NjI1IiBjbGFzcz0iZXIgYXR0cmlidXRlQm94T2RkIj48L3JlY3Q+PHRleHQgc3R5bGU9ImRvbWluYW50LWJhc2VsaW5lOiBtaWRkbGU7IGZvbnQtc2l6ZTogMTAuMnB4OyIgdHJhbnNmb3JtPSJ0cmFuc2xhdGUoMTUyLjQzNTYwNzkxMDE1NjI1LDExOC41KSIgeT0iMCIgeD0iMCIgaWQ9InRleHQtZW50aXR5LXVwZ3JhZGVzLTIxZmViOTA0LTcwMGItNTUyNi05NTZlLTBiM2UwNjNjOTNkNS1hdHRyLTUtY29tbWVudCIgY2xhc3M9ImVyIGVudGl0eUxhYmVsIj48L3RleHQ+PHJlY3QgaGVpZ2h0PSIyMSIgd2lkdGg9IjU1Ljg3NSIgeT0iMTI5IiB4PSIwIiBjbGFzcz0iZXIgYXR0cmlidXRlQm94RXZlbiI+PC9yZWN0Pjx0ZXh0IHN0eWxlPSJkb21pbmFudC1iYXNlbGluZTogbWlkZGxlOyBmb250LXNpemU6IDEwLjJweDsiIHRyYW5zZm9ybT0idHJhbnNsYXRlKDUsMTM5LjUpIiB5PSIwIiB4PSIwIiBpZD0idGV4dC1lbnRpdHktdXBncmFkZXMtMjFmZWI5MDQtNzAwYi01NTI2LTk1NmUtMGIzZTA2M2M5M2Q1LWF0dHItNi10eXBlIiBjbGFzcz0iZXIgZW50aXR5TGFiZWwiPmthdGVnb3JpZTwvdGV4dD48cmVjdCBoZWlnaHQ9IjIxIiB3aWR0aD0iNjcuNzY1NjI1IiB5PSIxMjkiIHg9IjU1Ljg3NSIgY2xhc3M9ImVyIGF0dHJpYnV0ZUJveEV2ZW4iPjwvcmVjdD48dGV4dCBzdHlsZT0iZG9taW5hbnQtYmFzZWxpbmU6IG1pZGRsZTsgZm9udC1zaXplOiAxMC4ycHg7IiB0cmFuc2Zvcm09InRyYW5zbGF0ZSg2MC44NzUsMTM5LjUpIiB5PSIwIiB4PSIwIiBpZD0idGV4dC1lbnRpdHktdXBncmFkZXMtMjFmZWI5MDQtNzAwYi01NTI2LTk1NmUtMGIzZTA2M2M5M2Q1LWF0dHItNi1uYW1lIiBjbGFzcz0iZXIgZW50aXR5TGFiZWwiPnN0cmluZzwvdGV4dD48cmVjdCBoZWlnaHQ9IjIxIiB3aWR0aD0iMjMuNzk0OTgyOTEwMTU2MjUiIHk9IjEyOSIgeD0iMTIzLjY0MDYyNSIgY2xhc3M9ImVyIGF0dHJpYnV0ZUJveEV2ZW4iPjwvcmVjdD48dGV4dCBzdHlsZT0iZG9taW5hbnQtYmFzZWxpbmU6IG1pZGRsZTsgZm9udC1zaXplOiAxMC4ycHg7IiB0cmFuc2Zvcm09InRyYW5zbGF0ZSgxMjguNjQwNjI1LDEzOS41KSIgeT0iMCIgeD0iMCIgaWQ9InRleHQtZW50aXR5LXVwZ3JhZGVzLTIxZmViOTA0LTcwMGItNTUyNi05NTZlLTBiM2UwNjNjOTNkNS1hdHRyLTYta2V5IiBjbGFzcz0iZXIgZW50aXR5TGFiZWwiPjwvdGV4dD48cmVjdCBoZWlnaHQ9IjIxIiB3aWR0aD0iMTQ5LjYzNjMyMjAyMTQ4NDM4IiB5PSIxMjkiIHg9IjE0Ny40MzU2MDc5MTAxNTYyNSIgY2xhc3M9ImVyIGF0dHJpYnV0ZUJveEV2ZW4iPjwvcmVjdD48dGV4dCBzdHlsZT0iZG9taW5hbnQtYmFzZWxpbmU6IG1pZGRsZTsgZm9udC1zaXplOiAxMC4ycHg7IiB0cmFuc2Zvcm09InRyYW5zbGF0ZSgxNTIuNDM1NjA3OTEwMTU2MjUsMTM5LjUpIiB5PSIwIiB4PSIwIiBpZD0idGV4dC1lbnRpdHktdXBncmFkZXMtMjFmZWI5MDQtNzAwYi01NTI2LTk1NmUtMGIzZTA2M2M5M2Q1LWF0dHItNi1jb21tZW50IiBjbGFzcz0iZXIgZW50aXR5TGFiZWwiPmVudW06IFByb2R1a3Rpb24sIEJvb3N0LCBLbGljazwvdGV4dD48cmVjdCBoZWlnaHQ9IjIxIiB3aWR0aD0iNTUuODc1IiB5PSIxNTAiIHg9IjAiIGNsYXNzPSJlciBhdHRyaWJ1dGVCb3hPZGQiPjwvcmVjdD48dGV4dCBzdHlsZT0iZG9taW5hbnQtYmFzZWxpbmU6IG1pZGRsZTsgZm9udC1zaXplOiAxMC4ycHg7IiB0cmFuc2Zvcm09InRyYW5zbGF0ZSg1LDE2MC41KSIgeT0iMCIgeD0iMCIgaWQ9InRleHQtZW50aXR5LXVwZ3JhZGVzLTIxZmViOTA0LTcwMGItNTUyNi05NTZlLTBiM2UwNjNjOTNkNS1hdHRyLTctdHlwZSIgY2xhc3M9ImVyIGVudGl0eUxhYmVsIj56aWVsX2lkPC90ZXh0PjxyZWN0IGhlaWdodD0iMjEiIHdpZHRoPSI2Ny43NjU2MjUiIHk9IjE1MCIgeD0iNTUuODc1IiBjbGFzcz0iZXIgYXR0cmlidXRlQm94T2RkIj48L3JlY3Q+PHRleHQgc3R5bGU9ImRvbWluYW50LWJhc2VsaW5lOiBtaWRkbGU7IGZvbnQtc2l6ZTogMTAuMnB4OyIgdHJhbnNmb3JtPSJ0cmFuc2xhdGUoNjAuODc1LDE2MC41KSIgeT0iMCIgeD0iMCIgaWQ9InRleHQtZW50aXR5LXVwZ3JhZGVzLTIxZmViOTA0LTcwMGItNTUyNi05NTZlLTBiM2UwNjNjOTNkNS1hdHRyLTctbmFtZSIgY2xhc3M9ImVyIGVudGl0eUxhYmVsIj5pbnQoMTEpPC90ZXh0PjxyZWN0IGhlaWdodD0iMjEiIHdpZHRoPSIyMy43OTQ5ODI5MTAxNTYyNSIgeT0iMTUwIiB4PSIxMjMuNjQwNjI1IiBjbGFzcz0iZXIgYXR0cmlidXRlQm94T2RkIj48L3JlY3Q+PHRleHQgc3R5bGU9ImRvbWluYW50LWJhc2VsaW5lOiBtaWRkbGU7IGZvbnQtc2l6ZTogMTAuMnB4OyIgdHJhbnNmb3JtPSJ0cmFuc2xhdGUoMTI4LjY0MDYyNSwxNjAuNSkiIHk9IjAiIHg9IjAiIGlkPSJ0ZXh0LWVudGl0eS11cGdyYWRlcy0yMWZlYjkwNC03MDBiLTU1MjYtOTU2ZS0wYjNlMDYzYzkzZDUtYXR0ci03LWtleSIgY2xhc3M9ImVyIGVudGl0eUxhYmVsIj5GSzwvdGV4dD48cmVjdCBoZWlnaHQ9IjIxIiB3aWR0aD0iMTQ5LjYzNjMyMjAyMTQ4NDM4IiB5PSIxNTAiIHg9IjE0Ny40MzU2MDc5MTAxNTYyNSIgY2xhc3M9ImVyIGF0dHJpYnV0ZUJveE9kZCI+PC9yZWN0Pjx0ZXh0IHN0eWxlPSJkb21pbmFudC1iYXNlbGluZTogbWlkZGxlOyBmb250LXNpemU6IDEwLjJweDsiIHRyYW5zZm9ybT0idHJhbnNsYXRlKDE1Mi40MzU2MDc5MTAxNTYyNSwxNjAuNSkiIHk9IjAiIHg9IjAiIGlkPSJ0ZXh0LWVudGl0eS11cGdyYWRlcy0yMWZlYjkwNC03MDBiLTU1MjYtOTU2ZS0wYjNlMDYzYzkzZDUtYXR0ci03LWNvbW1lbnQiIGNsYXNzPSJlciBlbnRpdHlMYWJlbCI+PC90ZXh0PjwvZz48ZyB0cmFuc2Zvcm09InRyYW5zbGF0ZSgzNTMuNTkyMTQ3ODI3MTQ4NDQsNDc4ICkiIGlkPSJlbnRpdHktdXNlcnVwZ3JhZGVzLWU1ZGYyMjRjLTFhZGEtNWQ3NS1iMTE0LTU5MWFmZjNhY2Y4YSI+PHJlY3QgaGVpZ2h0PSI4NyIgd2lkdGg9IjEyMy4yMzY0NTAxOTUzMTI1IiB5PSIwIiB4PSIwIiBjbGFzcz0iZXIgZW50aXR5Qm94Ij48L3JlY3Q+PHRleHQgc3R5bGU9ImRvbWluYW50LWJhc2VsaW5lOiBtaWRkbGU7IHRleHQtYW5jaG9yOiBtaWRkbGU7IGZvbnQtc2l6ZTogMTJweDsiIHRyYW5zZm9ybT0idHJhbnNsYXRlKDYxLjYxODIyNTA5NzY1NjI1LDEyKSIgeT0iMCIgeD0iMCIgaWQ9InRleHQtZW50aXR5LXVzZXJ1cGdyYWRlcy1lNWRmMjI0Yy0xYWRhLTVkNzUtYjExNC01OTFhZmYzYWNmOGEiIGNsYXNzPSJlciBlbnRpdHlMYWJlbCI+dXNlcl91cGdyYWRlczwvdGV4dD48cmVjdCBoZWlnaHQ9IjIxIiB3aWR0aD0iNjEuMzE2NDY3Mjg1MTU2MjUiIHk9IjI0IiB4PSIwIiBjbGFzcz0iZXIgYXR0cmlidXRlQm94T2RkIj48L3JlY3Q+PHRleHQgc3R5bGU9ImRvbWluYW50LWJhc2VsaW5lOiBtaWRkbGU7IGZvbnQtc2l6ZTogMTAuMnB4OyIgdHJhbnNmb3JtPSJ0cmFuc2xhdGUoNSwzNC41KSIgeT0iMCIgeD0iMCIgaWQ9InRleHQtZW50aXR5LXVzZXJ1cGdyYWRlcy1lNWRmMjI0Yy0xYWRhLTVkNzUtYjExNC01OTFhZmYzYWNmOGEtYXR0ci0xLXR5cGUiIGNsYXNzPSJlciBlbnRpdHlMYWJlbCI+dXNlcl9pZDwvdGV4dD48cmVjdCBoZWlnaHQ9IjIxIiB3aWR0aD0iMzguMTI1IiB5PSIyNCIgeD0iNjEuMzE2NDY3Mjg1MTU2MjUiIGNsYXNzPSJlciBhdHRyaWJ1dGVCb3hPZGQiPjwvcmVjdD48dGV4dCBzdHlsZT0iZG9taW5hbnQtYmFzZWxpbmU6IG1pZGRsZTsgZm9udC1zaXplOiAxMC4ycHg7IiB0cmFuc2Zvcm09InRyYW5zbGF0ZSg2Ni4zMTY0NjcyODUxNTYyNSwzNC41KSIgeT0iMCIgeD0iMCIgaWQ9InRleHQtZW50aXR5LXVzZXJ1cGdyYWRlcy1lNWRmMjI0Yy0xYWRhLTVkNzUtYjExNC01OTFhZmYzYWNmOGEtYXR0ci0xLW5hbWUiIGNsYXNzPSJlciBlbnRpdHlMYWJlbCI+aW50KDExKTwvdGV4dD48cmVjdCBoZWlnaHQ9IjIxIiB3aWR0aD0iMjMuNzk0OTgyOTEwMTU2MjUiIHk9IjI0IiB4PSI5OS40NDE0NjcyODUxNTYyNSIgY2xhc3M9ImVyIGF0dHJpYnV0ZUJveE9kZCI+PC9yZWN0Pjx0ZXh0IHN0eWxlPSJkb21pbmFudC1iYXNlbGluZTogbWlkZGxlOyBmb250LXNpemU6IDEwLjJweDsiIHRyYW5zZm9ybT0idHJhbnNsYXRlKDEwNC40NDE0NjcyODUxNTYyNSwzNC41KSIgeT0iMCIgeD0iMCIgaWQ9InRleHQtZW50aXR5LXVzZXJ1cGdyYWRlcy1lNWRmMjI0Yy0xYWRhLTVkNzUtYjExNC01OTFhZmYzYWNmOGEtYXR0ci0xLWtleSIgY2xhc3M9ImVyIGVudGl0eUxhYmVsIj5QSzwvdGV4dD48cmVjdCBoZWlnaHQ9IjIxIiB3aWR0aD0iNjEuMzE2NDY3Mjg1MTU2MjUiIHk9IjQ1IiB4PSIwIiBjbGFzcz0iZXIgYXR0cmlidXRlQm94RXZlbiI+PC9yZWN0Pjx0ZXh0IHN0eWxlPSJkb21pbmFudC1iYXNlbGluZTogbWlkZGxlOyBmb250LXNpemU6IDEwLjJweDsiIHRyYW5zZm9ybT0idHJhbnNsYXRlKDUsNTUuNSkiIHk9IjAiIHg9IjAiIGlkPSJ0ZXh0LWVudGl0eS11c2VydXBncmFkZXMtZTVkZjIyNGMtMWFkYS01ZDc1LWIxMTQtNTkxYWZmM2FjZjhhLWF0dHItMi10eXBlIiBjbGFzcz0iZXIgZW50aXR5TGFiZWwiPnVwZ3JhZGVfaWQ8L3RleHQ+PHJlY3QgaGVpZ2h0PSIyMSIgd2lkdGg9IjM4LjEyNSIgeT0iNDUiIHg9IjYxLjMxNjQ2NzI4NTE1NjI1IiBjbGFzcz0iZXIgYXR0cmlidXRlQm94RXZlbiI+PC9yZWN0Pjx0ZXh0IHN0eWxlPSJkb21pbmFudC1iYXNlbGluZTogbWlkZGxlOyBmb250LXNpemU6IDEwLjJweDsiIHRyYW5zZm9ybT0idHJhbnNsYXRlKDY2LjMxNjQ2NzI4NTE1NjI1LDU1LjUpIiB5PSIwIiB4PSIwIiBpZD0idGV4dC1lbnRpdHktdXNlcnVwZ3JhZGVzLWU1ZGYyMjRjLTFhZGEtNWQ3NS1iMTE0LTU5MWFmZjNhY2Y4YS1hdHRyLTItbmFtZSIgY2xhc3M9ImVyIGVudGl0eUxhYmVsIj5pbnQoMTEpPC90ZXh0PjxyZWN0IGhlaWdodD0iMjEiIHdpZHRoPSIyMy43OTQ5ODI5MTAxNTYyNSIgeT0iNDUiIHg9Ijk5LjQ0MTQ2NzI4NTE1NjI1IiBjbGFzcz0iZXIgYXR0cmlidXRlQm94RXZlbiI+PC9yZWN0Pjx0ZXh0IHN0eWxlPSJkb21pbmFudC1iYXNlbGluZTogbWlkZGxlOyBmb250LXNpemU6IDEwLjJweDsiIHRyYW5zZm9ybT0idHJhbnNsYXRlKDEwNC40NDE0NjcyODUxNTYyNSw1NS41KSIgeT0iMCIgeD0iMCIgaWQ9InRleHQtZW50aXR5LXVzZXJ1cGdyYWRlcy1lNWRmMjI0Yy0xYWRhLTVkNzUtYjExNC01OTFhZmYzYWNmOGEtYXR0ci0yLWtleSIgY2xhc3M9ImVyIGVudGl0eUxhYmVsIj5QSzwvdGV4dD48cmVjdCBoZWlnaHQ9IjIxIiB3aWR0aD0iNjEuMzE2NDY3Mjg1MTU2MjUiIHk9IjY2IiB4PSIwIiBjbGFzcz0iZXIgYXR0cmlidXRlQm94T2RkIj48L3JlY3Q+PHRleHQgc3R5bGU9ImRvbWluYW50LWJhc2VsaW5lOiBtaWRkbGU7IGZvbnQtc2l6ZTogMTAuMnB4OyIgdHJhbnNmb3JtPSJ0cmFuc2xhdGUoNSw3Ni41KSIgeT0iMCIgeD0iMCIgaWQ9InRleHQtZW50aXR5LXVzZXJ1cGdyYWRlcy1lNWRmMjI0Yy0xYWRhLTVkNzUtYjExNC01OTFhZmYzYWNmOGEtYXR0ci0zLXR5cGUiIGNsYXNzPSJlciBlbnRpdHlMYWJlbCI+bGV2ZWw8L3RleHQ+PHJlY3QgaGVpZ2h0PSIyMSIgd2lkdGg9IjM4LjEyNSIgeT0iNjYiIHg9IjYxLjMxNjQ2NzI4NTE1NjI1IiBjbGFzcz0iZXIgYXR0cmlidXRlQm94T2RkIj48L3JlY3Q+PHRleHQgc3R5bGU9ImRvbWluYW50LWJhc2VsaW5lOiBtaWRkbGU7IGZvbnQtc2l6ZTogMTAuMnB4OyIgdHJhbnNmb3JtPSJ0cmFuc2xhdGUoNjYuMzE2NDY3Mjg1MTU2MjUsNzYuNSkiIHk9IjAiIHg9IjAiIGlkPSJ0ZXh0LWVudGl0eS11c2VydXBncmFkZXMtZTVkZjIyNGMtMWFkYS01ZDc1LWIxMTQtNTkxYWZmM2FjZjhhLWF0dHItMy1uYW1lIiBjbGFzcz0iZXIgZW50aXR5TGFiZWwiPmludCgxMSk8L3RleHQ+PHJlY3QgaGVpZ2h0PSIyMSIgd2lkdGg9IjIzLjc5NDk4MjkxMDE1NjI1IiB5PSI2NiIgeD0iOTkuNDQxNDY3Mjg1MTU2MjUiIGNsYXNzPSJlciBhdHRyaWJ1dGVCb3hPZGQiPjwvcmVjdD48dGV4dCBzdHlsZT0iZG9taW5hbnQtYmFzZWxpbmU6IG1pZGRsZTsgZm9udC1zaXplOiAxMC4ycHg7IiB0cmFuc2Zvcm09InRyYW5zbGF0ZSgxMDQuNDQxNDY3Mjg1MTU2MjUsNzYuNSkiIHk9IjAiIHg9IjAiIGlkPSJ0ZXh0LWVudGl0eS11c2VydXBncmFkZXMtZTVkZjIyNGMtMWFkYS01ZDc1LWIxMTQtNTkxYWZmM2FjZjhhLWF0dHItMy1rZXkiIGNsYXNzPSJlciBlbnRpdHlMYWJlbCI+PC90ZXh0PjwvZz48cmVjdCBoZWlnaHQ9IjE0IiB3aWR0aD0iMTcuMzQ3NjU2MjUiIHk9IjQyNS4xMzI1Mzc4NDE3OTY5IiB4PSI3NC4yMzYwNjEwOTYxOTE0IiBjbGFzcz0iZXIgcmVsYXRpb25zaGlwTGFiZWxCb3giPjwvcmVjdD48dGV4dCBzdHlsZT0idGV4dC1hbmNob3I6IG1pZGRsZTsgZG9taW5hbnQtYmFzZWxpbmU6IG1pZGRsZTsgZm9udC1zaXplOiAxMnB4OyIgeT0iNDMyLjEzMjUzNzg0MTc5NjkiIHg9IjgyLjkwOTg4OTIyMTE5MTQiIGlkPSJyZWwxIiBjbGFzcz0iZXIgcmVsYXRpb25zaGlwTGFiZWwiPmhhdDwvdGV4dD48cmVjdCBoZWlnaHQ9IjE0IiB3aWR0aD0iMzYuMDMxMjUiIHk9IjQzMy4wMDEyNTEyMjA3MDMxIiB4PSIyNTUuMjgxNzk5MzE2NDA2MjUiIGNsYXNzPSJlciByZWxhdGlvbnNoaXBMYWJlbEJveCI+PC9yZWN0Pjx0ZXh0IHN0eWxlPSJ0ZXh0LWFuY2hvcjogbWlkZGxlOyBkb21pbmFudC1iYXNlbGluZTogbWlkZGxlOyBmb250LXNpemU6IDEycHg7IiB5PSI0NDAuMDAxMjUxMjIwNzAzMSIgeD0iMjczLjI5NzQyNDMxNjQwNjI1IiBpZD0icmVsMiIgY2xhc3M9ImVyIHJlbGF0aW9uc2hpcExhYmVsIj5sZWd0IGFuPC90ZXh0PjxyZWN0IGhlaWdodD0iMTQiIHdpZHRoPSI1MC4wNDY4NzUiIHk9IjQyMy4xNzA4Mzc0MDIzNDM3NSIgeD0iNDM1LjEyNTM2NjIxMDkzNzUiIGNsYXNzPSJlciByZWxhdGlvbnNoaXBMYWJlbEJveCI+PC9yZWN0Pjx0ZXh0IHN0eWxlPSJ0ZXh0LWFuY2hvcjogbWlkZGxlOyBkb21pbmFudC1iYXNlbGluZTogbWlkZGxlOyBmb250LXNpemU6IDEycHg7IiB5PSI0MzAuMTcwODM3NDAyMzQzNzUiIHg9IjQ2MC4xNDg4MDM3MTA5Mzc1IiBpZD0icmVsMyIgY2xhc3M9ImVyIHJlbGF0aW9uc2hpcExhYmVsIj5nZWjDtnJ0IHp1PC90ZXh0PjxyZWN0IGhlaWdodD0iMTQiIHdpZHRoPSI0My4zNTc0MjE4NzUiIHk9IjE1MCIgeD0iNDQzLjUzMTI4MDUxNzU3ODEiIGNsYXNzPSJlciByZWxhdGlvbnNoaXBMYWJlbEJveCI+PC9yZWN0Pjx0ZXh0IHN0eWxlPSJ0ZXh0LWFuY2hvcjogbWlkZGxlOyBkb21pbmFudC1iYXNlbGluZTogbWlkZGxlOyBmb250LXNpemU6IDEycHg7IiB5PSIxNTciIHg9IjQ2NS4yMDk5OTE0NTUwNzgxIiBpZD0icmVsNCIgY2xhc3M9ImVyIHJlbGF0aW9uc2hpcExhYmVsIj5kZWZpbmllcnQ8L3RleHQ+PC9zdmc+;" vertex="1" parent="1">
            <mxGeometry x="330" y="150" width="633.746337890625" height="585" as="geometry" />
          </mxCell>
        </UserObject>
      </root>
    </mxGraphModel>
  </diagram>
</mxfile>
